<svg width="944" height="1000" viewBox="0 0 944 1000" fill="none" xmlns="http://www.w3.org/2000/svg">
<path d="M34.3793 727.503C19.0733 736.343 19.0427 758.425 34.3241 767.306L290.197 916.019C297.323 920.16 306.12 920.172 313.257 916.051L570.99 767.211C586.296 758.372 586.327 736.29 571.045 727.408L315.172 578.696C308.047 574.554 299.25 574.542 292.113 578.664L34.3793 727.503Z" fill="#FFD3BE"/>
<path d="M164.454 499.419C150.467 491.318 150.493 471.114 164.501 463.049L399.034 328.015C405.547 324.265 413.567 324.281 420.064 328.057L683.557 481.193L912.06 613.873C926.008 621.971 925.998 642.117 912.044 650.203L677.993 785.822C671.468 789.602 663.416 789.594 656.899 785.8L393.077 632.214C393.001 632.169 393.032 632.052 393.121 632.052V632.052C393.21 632.052 393.241 631.935 393.164 631.89L164.454 499.419Z" fill="#FFD3BE"/>
<path d="M675.187 786.767L328.985 987.912C300.619 1004.03 254.845 1004.03 226.479 987.912L127.84 931.179C99.4737 915.061 99.4737 887.984 127.84 871.867L474.042 670.722L675.831 786.767H675.187Z" fill="#FFD3BE"/>
<path d="M232 194L233.289 502.809L447.973 627.88L447.328 319.071L232 194Z" fill="#E19768"/>
<path d="M226.47 190.426L441.798 315.497L657.771 190.426L443.087 65.3548L226.47 190.426Z" fill="#F7F7F8"/>
<path d="M212.927 173.027V185.921L441.149 318.728V305.834L212.927 173.027Z" fill="#573A2D"/>
<path d="M441.147 305.834V318.728L670.658 185.921V173.027L441.147 305.834Z" fill="#714930"/>
<path d="M212.924 173.019L441.146 305.827L670.658 173.019L442.436 40.2123L212.924 173.019Z" fill="#A36940"/>
<path d="M445.675 318.078L446.319 626.887L661.648 751.958L660.358 443.149L445.675 318.078Z" fill="#E19768"/>
<path d="M660.359 443.149L661.648 751.958L877.621 626.887L876.976 318.078L660.359 443.149Z" fill="#EFAE82"/>
<path d="M445.67 318.086L660.354 443.157L876.971 318.086L661.643 193.015L445.67 318.086Z" fill="#F7F7F8"/>
<path d="M431.477 300.667V314.206L659.699 446.368V433.474L431.477 300.667Z" fill="#573A2D"/>
<path d="M659.716 433.474V446.368L889.228 314.206V300.667L659.716 433.474Z" fill="#714930"/>
<path d="M431.494 300.664L659.717 433.472L889.228 300.664L661.006 168.502L431.494 300.664Z" fill="#A36940"/>
<path d="M577.827 216.21L629.402 186.554C623.6 183.976 616.508 182.686 610.061 182.686C600.391 182.686 590.721 185.265 583.629 191.067C574.603 198.159 572.669 208.474 577.827 216.855V216.21Z" fill="#93603D"/>
<path d="M612.653 232.331C622.323 232.331 631.993 229.752 639.085 223.95C651.979 213.635 650.69 198.162 635.217 188.491C633.283 187.202 631.349 186.557 629.415 185.913L577.839 215.569C579.773 219.437 583.641 222.66 588.154 225.239C595.246 229.752 604.272 231.686 613.297 231.686L612.653 232.331Z" fill="#93603D"/>
<path d="M590.078 196.875C579.763 202.677 579.763 212.347 590.078 218.15C600.393 223.952 617.155 223.952 627.47 218.15C637.786 212.347 637.786 202.677 627.47 196.875C617.155 191.072 600.393 191.072 590.078 196.875Z" fill="#80BAC5"/>
<path d="M648.742 183.336L632.625 213.636L582.983 211.057L568.155 183.336H648.742Z" fill="#80BAC5"/>
<path d="M579.125 172.371C563.007 182.041 562.363 196.869 579.125 206.54C595.242 216.21 621.675 216.21 638.437 206.54C654.554 196.869 655.199 182.041 638.437 172.371C622.319 162.7 595.887 162.7 579.125 172.371Z" fill="#D9DCDE"/>
<path d="M583.627 174.953C569.444 182.69 569.444 196.228 583.627 203.965C597.166 211.701 619.73 211.701 633.913 203.965C648.097 196.228 648.097 182.69 633.913 174.953C620.375 167.217 597.81 167.217 583.627 174.953Z" fill="#F7FBFE"/>
<path d="M588.139 180.754C576.534 187.201 576.534 198.161 588.139 205.252C599.743 211.699 618.44 211.699 630.044 205.252C641.649 198.805 641.649 187.846 630.044 180.754C618.44 174.307 599.743 174.307 588.139 180.754Z" fill="#D9DCDE"/>
<path d="M518.515 180.76C528.186 180.76 537.856 178.181 544.948 172.379C557.842 162.063 556.552 146.591 541.08 136.92C533.988 132.407 524.962 130.473 515.936 130.473C506.266 130.473 496.596 133.052 489.504 138.854C476.61 149.169 478.544 164.642 493.372 174.313C500.464 178.826 509.489 180.76 518.515 180.76Z" fill="#93603D"/>
<path d="M495.961 145.291C485.646 151.093 485.646 160.764 495.961 166.566C506.276 172.368 523.038 172.368 533.353 166.566C543.668 160.764 543.668 151.093 533.353 145.291C523.038 139.489 506.276 139.489 495.961 145.291Z" fill="#80BAC5"/>
<path d="M554.625 131.772L538.508 162.072L488.222 159.494L473.394 131.772H554.625Z" fill="#80BAC5"/>
<path d="M484.359 120.807C468.242 130.478 467.597 145.306 484.359 154.976C500.477 164.646 526.909 164.646 543.671 154.976C559.789 145.306 560.434 130.478 543.671 120.807C527.554 111.137 501.122 111.137 484.359 120.807Z" fill="#D9DCDE"/>
<path d="M488.862 123.39C474.678 131.126 474.678 144.665 488.862 152.401C502.4 160.137 524.965 160.137 539.148 152.401C553.331 144.665 553.331 131.126 539.148 123.39C525.609 115.653 503.045 115.653 488.862 123.39Z" fill="#F7FBFE"/>
<path d="M493.373 129.19C481.768 135.637 481.768 146.597 493.373 153.689C504.977 160.136 523.673 160.136 535.278 153.689C546.882 147.242 546.882 136.282 535.278 129.19C523.673 122.743 504.977 122.743 493.373 129.19Z" fill="#D9DCDE"/>
<path d="M434.707 131.124C444.378 131.124 454.048 128.545 461.14 122.743C474.034 112.428 472.744 96.9549 457.272 87.2845C450.18 82.7716 441.154 80.8375 432.128 80.8375C422.458 80.8375 412.788 83.4163 405.696 89.2186C392.802 99.5337 394.736 115.006 409.564 124.677C416.656 129.19 425.682 131.124 434.707 131.124Z" fill="#93603D"/>
<path d="M412.153 96.3047C401.837 102.107 401.837 111.777 412.153 117.58C422.468 123.382 439.23 123.382 449.545 117.58C459.86 111.777 459.86 102.107 449.545 96.3047C439.23 90.5025 422.468 90.5025 412.153 96.3047Z" fill="#80BAC5"/>
<path d="M470.816 82.7655L454.699 113.066L405.057 109.843L390.229 82.7655H470.816Z" fill="#80BAC5"/>
<path d="M401.181 71.8009C385.063 81.4714 384.419 96.2993 401.181 105.97C417.298 115.64 443.731 115.64 460.493 105.97C476.61 96.2993 477.255 81.4714 460.493 71.8009C444.375 62.1305 417.943 62.1305 401.181 71.8009Z" fill="#D9DCDE"/>
<path d="M405.702 74.3834C391.519 82.1197 391.519 95.6584 405.702 103.395C419.24 111.131 441.805 111.131 455.988 103.395C470.171 95.6584 470.171 82.1197 455.988 74.3834C442.449 66.647 419.885 66.647 405.702 74.3834Z" fill="#F7FBFE"/>
<path d="M409.565 79.5347C397.96 85.9817 397.96 96.9415 409.565 104.033C421.169 110.48 439.865 110.48 451.47 104.033C463.074 97.5862 463.074 86.6264 451.47 79.5347C439.865 73.0877 421.169 73.0877 409.565 79.5347Z" fill="#D9DCDE"/>
<path d="M483.698 271.017L530.76 243.94C526.892 242.65 522.379 242.65 517.867 242.65C508.196 242.65 498.526 245.229 491.434 251.031C483.698 256.834 481.119 264.57 483.698 271.662V271.017Z" fill="#93603D"/>
<path d="M521.093 291.647C530.763 291.647 540.434 289.069 547.525 283.266C560.419 272.951 559.13 257.478 543.657 247.808C539.789 245.229 535.921 243.94 531.408 242.65L484.345 269.728C485.635 274.885 490.147 280.043 496.594 283.911C503.686 288.424 512.712 290.358 521.737 290.358L521.093 291.647Z" fill="#93603D"/>
<path d="M498.538 256.19C488.222 261.992 488.222 271.662 498.538 277.465C508.853 283.267 525.615 283.267 535.93 277.465C546.245 271.662 546.245 261.992 535.93 256.19C525.615 250.387 508.853 250.387 498.538 256.19Z" fill="#80BAC5"/>
<path d="M557.201 242.65L541.084 272.951L491.442 270.372L475.969 242.65H557.201Z" fill="#80BAC5"/>
<path d="M486.936 231.686C470.818 241.356 470.174 256.184 486.936 265.855C503.053 275.525 529.486 275.525 546.248 265.855C562.365 256.184 563.01 241.356 546.248 231.686C530.13 222.015 503.698 222.015 486.936 231.686Z" fill="#D9DCDE"/>
<path d="M492.088 234.268C477.904 242.005 477.904 255.543 492.088 263.28C505.626 271.016 528.191 271.016 542.374 263.28C556.557 255.543 556.557 242.005 542.374 234.268C528.835 226.532 506.271 226.532 492.088 234.268Z" fill="#F7FBFE"/>
<path d="M495.95 240.069C484.346 246.516 484.346 257.476 495.95 264.567C507.555 271.014 526.251 271.014 537.856 264.567C549.46 258.12 549.46 247.161 537.856 240.069C526.251 233.622 507.555 233.622 495.95 240.069Z" fill="#D9DCDE"/>
<path d="M426.326 240.075C435.997 240.075 445.667 237.496 452.759 231.694C465.653 221.378 464.363 205.906 448.891 196.235C441.799 191.722 432.773 189.788 423.747 189.788C414.077 189.788 404.407 192.367 397.315 198.169C384.421 208.484 386.355 223.957 401.183 233.628C408.275 238.14 417.301 240.075 426.326 240.075Z" fill="#93603D"/>
<path d="M403.771 204.606C393.456 210.409 393.456 220.079 403.771 225.881C414.086 231.683 430.848 231.683 441.164 225.881C451.479 220.079 451.479 210.409 441.164 204.606C430.848 198.804 414.086 198.804 403.771 204.606Z" fill="#80BAC5"/>
<path d="M462.436 191.067L446.318 221.368L396.677 218.789L381.849 191.067H462.436Z" fill="#80BAC5"/>
<path d="M392.799 180.122C376.682 189.793 376.037 204.621 392.799 214.291C408.916 223.961 435.349 223.961 452.111 214.291C468.228 204.621 468.873 189.793 452.111 180.122C435.994 170.452 409.561 170.452 392.799 180.122Z" fill="#D9DCDE"/>
<path d="M397.321 182.685C383.138 190.421 383.138 203.96 397.321 211.696C410.86 219.432 433.424 219.432 447.608 211.696C461.791 203.96 461.791 190.421 447.608 182.685C434.069 174.948 411.505 174.948 397.321 182.685Z" fill="#F7FBFE"/>
<path d="M401.184 187.856C389.579 194.303 389.579 205.263 401.184 212.354C412.788 218.801 431.484 218.801 443.089 212.354C454.693 205.907 454.693 194.948 443.089 187.856C431.484 181.409 412.788 181.409 401.184 187.856Z" fill="#D9DCDE"/>
<path d="M343.167 190.439C352.837 190.439 362.508 187.86 369.6 182.058C382.493 171.743 381.204 156.27 365.731 146.6C358.64 142.087 349.614 140.153 340.588 140.153C330.918 140.153 321.247 142.731 314.156 148.534C301.262 158.849 303.196 174.321 318.024 183.992C325.116 188.505 334.141 190.439 343.167 190.439Z" fill="#93603D"/>
<path d="M319.944 154.97C309.628 160.773 309.628 170.443 319.944 176.245C330.259 182.048 347.021 182.048 357.336 176.245C367.651 170.443 367.651 160.773 357.336 154.97C347.021 149.168 330.259 149.168 319.944 154.97Z" fill="#80BAC5"/>
<path d="M379.257 141.431L363.139 171.732L312.853 169.153L298.025 141.431H379.257Z" fill="#80BAC5"/>
<path d="M308.991 130.467C292.873 140.137 292.229 154.965 308.991 164.636C325.108 174.306 351.541 174.306 368.303 164.636C384.42 154.965 385.065 140.137 368.303 130.467C352.185 120.796 325.753 120.796 308.991 130.467Z" fill="#D9DCDE"/>
<path d="M313.513 133.049C299.329 140.785 299.329 154.324 313.513 162.06C327.051 169.797 349.616 169.797 363.799 162.06C377.982 154.324 377.982 140.785 363.799 133.049C350.26 125.313 327.696 125.313 313.513 133.049Z" fill="#F7FBFE"/>
<path d="M318.025 138.85C306.42 145.297 306.42 156.256 318.025 163.348C329.629 169.795 348.325 169.795 359.93 163.348C371.534 156.901 371.534 145.941 359.93 138.85C348.325 132.403 329.629 132.403 318.025 138.85Z" fill="#D9DCDE"/>
<path d="M454.041 91.7874C454.041 91.7874 461.777 87.2745 457.264 82.117C452.107 76.3147 455.975 71.8019 448.883 67.289C441.792 62.7762 440.502 62.1315 434.055 68.5784C427.608 75.0254 420.517 71.8019 414.714 77.6041C408.912 83.4064 399.886 91.1427 402.465 95.6556C405.044 99.5237 423.74 110.484 439.213 103.392C454.685 96.3003 460.488 102.103 454.685 91.7874H454.041Z" fill="#F9A139"/>
<path d="M530.768 143.361C530.768 143.361 537.215 136.269 530.768 127.244C524.321 118.218 525.611 109.192 519.809 105.324C514.006 101.456 505.625 114.994 499.823 122.086C494.021 129.178 486.284 136.269 486.929 141.427C487.574 147.229 504.981 161.413 533.992 150.453C563.003 139.493 520.453 148.519 530.768 142.716V143.361Z" fill="#F9A139"/>
<path d="M631.344 188.49C631.344 188.49 630.055 176.886 626.186 171.728C622.318 166.571 619.739 160.124 612.003 158.19C603.622 156.255 601.043 151.743 596.53 165.281C592.017 178.82 581.702 182.688 582.992 186.556C584.281 190.424 581.702 199.45 584.926 202.029C588.149 204.608 622.963 212.989 628.765 202.029C633.923 191.069 641.659 193.648 631.989 187.846L631.344 188.49Z" fill="#F9A139"/>
<path d="M678.399 381.901C693.871 381.901 709.344 378.678 720.949 371.586C740.289 359.982 743.513 343.22 730.619 329.681C735.132 330.326 740.289 330.326 744.802 330.326C760.92 330.326 777.682 326.457 789.931 319.366C815.074 305.183 814.429 281.329 789.931 267.146C777.682 260.054 760.92 256.186 744.802 256.186C728.685 256.186 711.923 260.054 699.674 267.146C678.399 279.395 675.82 298.091 690.648 312.274C686.78 311.629 682.912 311.629 679.043 311.629C663.571 311.629 648.098 314.853 636.494 321.945C613.285 335.483 613.285 357.403 636.494 370.941C648.098 378.033 663.571 381.257 679.043 381.257L678.399 381.901Z" fill="#93603D"/>
<path d="M799.599 213.643C807.98 218.801 808.624 226.537 799.599 231.695L795.73 233.629L791.218 231.05L793.152 229.761C799.599 225.892 799.599 219.445 793.152 215.577L785.415 211.064C778.968 207.196 768.009 207.196 760.917 211.064L758.983 212.354L754.47 209.775L758.338 207.841C766.719 202.683 780.902 202.683 789.928 207.841L800.243 213.643H799.599Z" fill="#D7D5D5"/>
<path d="M754.478 209.776L758.991 212.355L760.925 211.066L762.859 210.421H763.504L764.793 209.776H765.438H766.083H766.727H767.372H769.306H769.951H771.24H771.885H773.174H773.819H774.464H775.108H775.753H776.398H777.042H777.687H778.332H778.977H780.266H780.911L782.845 210.421C783.489 211.066 784.134 211.066 785.423 211.711L793.16 216.223C796.383 218.157 798.317 220.736 798.317 223.315V227.183C798.317 224.604 796.383 222.026 793.16 220.092L785.423 215.579C784.779 214.934 784.134 214.934 782.845 214.289L780.911 213.645H780.266H778.977H778.332H777.687H777.042H776.398H775.753H775.108H774.464H773.819H773.174H771.885H771.24H769.306H768.661H768.017H767.372H766.727H766.083L764.793 214.289H764.149L762.859 214.934L760.28 216.223L755.768 213.645V209.776H754.478Z" fill="#FEFEFE"/>
<path d="M795.734 233.623L799.603 231.688L800.247 231.044L801.537 230.399H802.182L802.826 229.754L803.471 228.465L804.116 227.82L804.76 227.175L805.405 226.531V225.886V225.241L806.05 224.596V223.952V223.307V222.662V226.531V227.175V227.82V228.465L805.405 229.109V230.399H804.76L804.116 231.044V231.688L803.471 232.333L802.826 232.978L802.182 233.623L801.537 234.267L800.247 234.912L799.603 235.557L795.734 237.491L791.221 234.912V231.044L795.734 233.623Z" fill="#FEFEFE"/>
<path d="M685.504 229.106V229.751V230.396V231.04V231.685V232.33V232.974V233.619V234.264L686.149 234.908L686.794 235.553L687.438 236.198L688.083 236.843L688.728 238.132L689.372 238.777L690.017 240.066L690.662 240.711L691.951 242.645L692.596 243.29L693.885 244.579L694.53 245.224L695.175 245.868L695.819 246.513L696.464 247.158L697.109 247.802L697.753 248.447L698.398 249.092L699.687 249.736L700.977 250.381C702.266 251.026 703.556 251.671 704.845 252.315L706.134 252.96C707.424 253.605 708.713 254.249 709.358 254.249H710.003C711.292 254.894 712.581 254.894 713.871 255.539C714.515 255.539 715.805 256.183 716.45 256.183L718.384 256.828C719.673 256.828 720.318 257.473 721.607 257.473L723.541 258.117H724.831C726.12 258.117 727.409 258.762 728.699 258.762H729.988C731.278 258.762 733.212 258.762 734.501 259.407H735.146C736.435 259.407 738.369 259.407 739.659 259.407H740.303C741.593 259.407 742.882 259.407 743.527 259.407C744.171 259.407 745.461 259.407 746.106 259.407C746.75 259.407 748.04 259.407 748.684 259.407C749.329 259.407 750.618 259.407 751.263 259.407C752.552 259.407 753.842 259.407 755.131 258.762C756.421 258.762 758.355 258.117 759.644 258.117H760.289C761.578 257.473 762.868 257.473 764.157 256.828L765.446 256.183C766.736 255.539 768.025 255.539 768.67 254.894L769.315 254.249C770.604 253.605 771.249 253.605 772.538 252.96L773.827 252.315C775.117 251.671 776.406 251.026 777.696 250.381C788.655 243.934 793.813 236.198 793.813 227.817C793.813 247.802 793.813 267.788 793.813 287.773C793.813 296.155 788.655 304.536 777.696 310.338C776.406 310.983 775.117 311.627 773.827 312.272L772.538 312.917C771.893 313.561 770.604 313.561 769.959 314.206H769.315L768.025 314.851C766.736 315.495 766.091 315.495 764.802 316.14L763.512 316.785H762.868C761.578 317.429 760.934 317.429 759.644 317.429H758.999L757.065 318.074C756.421 318.074 755.131 318.719 754.487 318.719L751.908 319.364H750.618C749.974 319.364 748.684 319.364 748.04 319.364H746.75H745.461C744.816 319.364 743.527 319.364 742.882 319.364H741.593H739.659H739.014C737.724 319.364 737.08 319.364 735.79 319.364H734.501H733.856C732.567 319.364 731.278 319.364 729.988 319.364H729.343H728.054C726.765 319.364 725.475 318.719 724.186 318.719H723.541H722.897L720.962 318.074C719.673 318.074 719.028 317.429 717.739 317.429L715.805 316.785C715.16 316.785 713.871 316.14 713.226 316.14H712.581C711.292 315.495 710.647 315.495 709.358 314.851H708.713C707.424 314.206 706.134 313.561 704.845 313.561L703.556 312.917C702.266 312.272 700.977 311.627 699.687 310.983L699.043 310.338L698.398 309.693L697.109 309.048L696.464 308.404L695.819 307.759L695.175 307.114L694.53 306.47L693.885 305.825L693.241 305.18H692.596L691.306 303.891L690.662 303.246L689.372 301.312V300.667L688.728 299.378L688.083 298.733L687.438 297.444V296.799L686.794 296.155L686.149 295.51L685.504 294.865V294.22V293.576V292.931V292.286V291.642V290.997V290.352V289.708V289.063V288.418V287.773C685.504 267.788 685.504 247.802 685.504 227.817V228.462V229.106Z" fill="#E2E3E4"/>
<path d="M701.613 205.9C680.338 218.149 679.693 238.78 701.613 251.029C722.888 263.278 757.701 263.278 779.621 251.029C800.896 238.78 801.541 218.149 779.621 205.9C758.346 193.651 723.532 193.651 701.613 205.9Z" fill="#E2E3E4"/>
<path d="M701.613 251.024C697.1 248.445 693.232 245.222 690.653 241.998C688.074 232.973 692.587 223.947 704.836 216.855C724.177 205.895 755.767 205.895 775.108 216.855C788.002 224.592 792.515 235.551 787.357 245.222C785.423 247.156 782.2 249.09 779.621 251.024C758.346 263.273 722.888 263.273 701.613 251.024Z" fill="#F9A139"/>
<path d="M706.117 249.095C725.458 260.055 756.403 260.055 775.744 249.095C795.085 238.135 795.085 220.084 775.744 209.124C756.403 198.164 725.458 198.164 706.117 209.124C686.776 220.084 686.776 238.135 706.117 249.095ZM702.249 205.9C723.524 193.651 758.982 193.651 780.257 205.9C801.532 218.149 801.532 238.78 780.257 251.029C758.982 263.278 723.524 263.278 702.249 251.029C680.974 238.78 680.974 218.149 702.249 205.9Z" fill="#F7F7F8"/>
<path d="M692.578 253.609L691.933 254.253L691.289 254.898H690.644V255.543L689.999 256.187L689.354 256.832V257.477H688.71V258.121V258.766V259.411V264.569V263.924V263.279V262.634H689.354V261.99L689.999 261.345V260.7L690.644 260.056H691.289L691.933 259.411L692.578 258.766L693.223 258.121V253.609H692.578Z" fill="#939292"/>
<path d="M723.528 273.591L721.594 274.236H720.949L719.66 274.88H719.015H718.37H717.726H716.436H715.791H713.857H713.213H711.923H711.279H709.989H709.344H708.7H708.055H707.41H706.766H705.476H704.832H703.542H702.897L700.963 274.236L700.319 273.591H699.674L698.385 272.946L687.425 266.499C683.557 264.565 681.622 261.342 681.622 258.763V263.92C681.622 266.499 683.557 269.723 687.425 271.657L698.385 278.104L699.674 278.748H700.319L700.963 279.393L702.897 280.038H703.542H704.832H705.476H706.766H707.41H708.055H708.7H709.344H709.989H710.634H711.279H712.568H713.213H714.502H715.147H717.081H717.726H719.015H719.66H720.304H720.949L722.238 279.393H722.883L724.817 278.748L727.396 277.459V272.301L724.817 273.591H723.528Z" fill="#FEFEFE"/>
<path d="M726.116 272.302L723.537 273.591C716.446 278.104 704.197 278.104 697.105 273.591L686.145 267.144C679.054 262.631 679.054 256.184 686.145 251.671L688.724 250.382L693.237 252.961L692.592 253.606C687.435 256.829 687.435 261.987 692.592 265.21L700.973 269.723C706.131 272.946 715.156 272.946 720.314 269.723L720.959 269.078L725.472 271.657L726.116 272.302Z" fill="#D7D5D5"/>
<path d="M627.47 296.808C621.023 300.676 621.023 306.479 627.47 310.347L630.049 311.636L633.272 309.702L631.338 308.413C626.18 305.834 626.18 300.676 631.338 298.098L637.14 294.874C642.298 292.295 650.034 292.295 655.192 294.874L657.126 296.164L660.349 294.229L657.77 292.295C651.323 288.427 641.008 288.427 634.561 292.295L626.825 296.808H627.47Z" fill="#D7D5D5"/>
<path d="M660.988 294.229L657.764 296.164L655.83 294.874L654.541 294.229H653.896L652.607 293.585H651.962H651.317H650.673H650.028H648.738H648.094H647.449H646.804H646.16H645.515H644.87H644.225H643.581H642.936H642.291H641.647H641.002L639.712 294.229L637.778 294.874L631.976 298.098C629.397 299.387 628.108 301.321 628.108 303.255V305.834C628.108 303.9 629.397 301.966 631.976 300.676L637.778 297.453L639.712 296.808L641.002 296.164H641.647H642.291H642.936H643.581H644.225H644.87H645.515H646.16H646.804H647.449H648.094H648.738H649.383H650.673H651.317H651.962H652.607H653.251H653.896L655.186 296.808H655.83L657.12 297.453L659.054 298.742L662.277 296.808V294.229H660.988Z" fill="#FEFEFE"/>
<path d="M630.059 311.626L627.48 310.336L626.836 309.691L626.191 309.047L625.546 308.402L624.901 307.757L624.257 307.113L623.612 306.468V305.823L622.967 305.178V304.534V303.889V303.244V306.468V307.113V307.757V308.402H623.612V309.047L624.257 309.691V310.336H624.901L625.546 310.981L626.191 311.626V312.27H626.836L627.48 312.915L630.059 314.204L633.927 312.27V309.691L630.059 311.626Z" fill="#FEFEFE"/>
<path d="M711.936 308.399V309.043V309.688V310.333V310.977V311.622V312.267V312.911V313.556V314.201V314.846V315.49V316.135L711.292 316.78V317.424L710.647 318.069V318.714L709.358 320.003L708.713 320.648L708.068 321.293L707.423 321.937L706.779 322.582L706.134 323.227L705.489 323.871L704.845 324.516L704.2 325.161L703.555 325.805L702.911 326.45C702.266 327.095 700.977 327.739 700.332 327.739L699.687 328.384C699.042 329.029 697.753 329.029 697.108 329.674H696.464C695.819 330.318 694.53 330.318 693.24 330.963L691.306 331.608L689.372 332.252L686.793 332.897L685.504 333.542H684.859C684.214 333.542 682.925 333.542 682.28 334.186H681.636C680.346 334.186 679.702 334.186 678.412 334.186H677.767C676.478 334.186 675.189 334.186 674.544 334.186H673.899C673.255 334.186 671.965 334.186 671.321 334.186H669.386H667.452H665.518C664.874 334.186 663.584 334.186 662.939 333.542C661.65 333.542 660.361 332.897 659.716 332.897H659.071C657.782 332.897 657.137 332.252 655.848 332.252H655.203C654.558 332.252 653.269 331.608 652.624 331.608H651.98L650.046 330.963L648.756 330.318C647.467 329.674 646.822 329.029 645.533 329.029C637.152 324.516 633.284 318.069 633.284 312.267C633.284 327.095 633.284 341.923 633.284 356.751C633.284 362.553 637.152 369 645.533 373.513C646.822 374.158 647.467 374.802 648.756 374.802L650.046 375.447L651.98 376.092H652.624C653.269 376.092 654.558 376.736 655.203 376.736H655.848H656.493C657.137 376.736 658.427 377.381 659.071 377.381H659.716H661.005L662.939 378.026H664.874H665.518H667.452H668.742H669.386H671.321H672.61H673.899H674.544H677.123H678.412H679.057C679.702 378.026 680.991 378.026 681.636 378.026H682.28H682.925C684.214 378.026 684.859 378.026 685.504 377.381H686.149H686.793H688.083L690.017 376.736L691.951 376.092L693.885 375.447H694.53C695.174 375.447 696.464 374.802 697.108 374.802H697.753C698.398 374.158 699.687 374.158 700.332 373.513L700.977 372.868C701.621 372.224 702.911 372.224 703.555 371.579H704.2H704.845L705.489 370.934L706.134 370.289L706.779 369.645L707.423 369L708.068 368.355L708.713 367.711L709.358 367.066L710.002 366.421L711.292 365.132L711.936 364.487V363.842L712.581 363.198V362.553V361.908V361.264V360.619V359.974V359.33V358.685V358.04V357.396V356.751V356.106V355.461C712.581 340.633 712.581 325.805 712.581 310.977V311.622L711.936 308.399Z" fill="#E2E3E4"/>
<path d="M700.317 291.009C716.434 300.035 716.434 315.508 700.317 324.533C684.2 333.559 658.412 333.559 642.294 324.533C626.177 315.508 626.177 300.035 642.294 291.009C658.412 281.983 684.2 281.983 700.317 291.009Z" fill="#F7F7F8"/>
<path d="M706.761 326.459H707.406V327.103H708.05V327.748H708.695V328.393H709.34V329.038L709.984 329.682V330.327V330.972V334.195V333.551L709.34 332.906V332.261L708.695 331.616L708.05 330.972H707.406V330.327H706.761L706.116 329.682V326.459H706.761Z" fill="#939292"/>
<path d="M684.202 341.279L685.491 341.924H686.136L687.426 342.569H688.07H688.715H689.36H690.004H690.649H691.939H692.583H693.228H693.873H694.517H695.162H695.807H696.452H697.096H697.741H698.386H699.03H699.675H700.32L701.609 341.924H702.254H702.899L704.188 341.279L712.569 336.766C715.148 335.477 716.438 332.898 716.438 330.964V334.832C716.438 336.766 715.148 338.7 712.569 340.635L704.188 345.148L702.899 345.792H702.254H701.609L700.32 346.437H699.675H699.03H698.386H697.741H697.096H696.452H695.807H695.162H694.517H693.873H693.228H692.583H691.294H690.649H690.004H689.36H688.715L687.426 345.792H686.781L685.491 345.148L683.557 343.858V339.99L685.491 341.279H684.202Z" fill="#FEFEFE"/>
<path d="M682.264 339.999L684.198 341.289C689.355 344.512 698.381 344.512 703.539 341.289L711.921 336.776C717.078 333.552 717.078 328.394 711.921 325.171L709.986 323.881L706.118 325.816H706.763C710.631 328.394 710.631 331.618 706.763 334.197L700.96 337.421C697.092 339.999 690.645 339.999 686.132 337.421H685.487L681.619 339.355L682.264 339.999Z" fill="#D7D5D5"/>
<path d="M682.914 300.036C682.914 297.457 682.269 296.168 680.98 295.523L678.401 294.234C679.69 294.879 680.335 296.813 680.335 298.747V299.392L682.914 300.681V300.036Z" fill="#80BAC5"/>
<path d="M677.756 290.994L678.401 290.349H679.046H679.69H680.335H680.98H681.624H682.269L682.914 290.994L682.269 290.349L680.335 289.705V289.06H679.69H679.046H678.401H677.756H677.111H676.467L675.822 289.705H675.177L673.888 290.349L666.151 294.862L664.862 295.507L664.217 296.152L663.572 296.796H662.928V297.441L662.283 298.086L661.638 298.73L660.994 299.375V300.02L660.349 300.665L659.704 301.309V301.954H659.059V302.599V303.243L658.415 303.888V304.533L657.77 305.178V305.822V306.467L657.125 307.112V307.756V308.401V309.046V310.335V310.98V312.914L659.704 314.204L659.059 312.269V311.625L659.704 310.335V309.691V309.046V308.401V307.756L660.349 307.112V306.467V305.822L660.994 305.178L661.638 303.888V303.243L662.283 302.599V301.954H662.928V301.309L663.572 300.665V300.02H664.217V299.375L664.862 298.73L665.507 298.086L666.151 297.441H666.796L667.441 296.796L668.085 296.152L676.467 291.639L677.756 290.994Z" fill="#80BAC5"/>
<path d="M676.466 291.656C681.623 289.077 685.492 291.011 685.492 296.814V297.458V299.392L682.913 300.682V300.037C682.913 295.524 679.689 293.59 675.821 296.169L669.374 300.037C665.506 302.616 662.282 307.774 662.282 312.287V312.931L659.703 314.221V312.287V311.642C659.703 305.84 663.571 298.748 668.729 296.169L677.11 291.656H676.466Z" fill="#E2E3E4"/>
<path d="M183.918 347.096C183.918 347.096 161.354 358.7 159.42 390.291C159.42 390.291 185.852 381.91 183.918 347.096Z" fill="#BD3444"/>
<path d="M191.023 344.515C191.023 344.515 165.88 338.068 143.96 361.277C143.96 361.277 169.748 372.237 191.023 344.515Z" fill="#BD3444"/>
<path d="M408.277 312.273C408.277 312.273 454.051 321.944 463.077 295.511C464.366 292.288 461.787 290.354 450.827 292.288C443.091 293.577 438.578 296.801 434.71 292.288C430.197 287.775 445.67 278.105 441.802 274.881C438.578 271.658 409.567 284.552 409.567 284.552L401.186 287.13L396.028 311.629L408.277 312.918V312.273Z" fill="#F9AB88"/>
<path d="M272.889 151.738C272.889 151.738 290.94 134.331 303.189 155.606C315.438 176.236 325.109 263.915 332.845 271.651C336.713 275.519 408.275 283.9 408.275 283.9C408.275 283.9 396.025 292.926 406.985 315.49C406.985 315.49 310.281 330.963 298.032 309.688C276.757 272.94 255.482 183.328 273.533 152.382L272.889 151.738Z" fill="#BAC0C5"/>
<path d="M428.252 276.82C428.252 276.82 452.751 269.728 446.949 274.886C440.502 280.044 429.542 289.714 423.739 288.425C417.937 287.136 428.897 276.176 428.897 276.176L428.252 276.82Z" fill="#F9AB88"/>
<path d="M206.49 153.688C206.49 153.688 198.754 158.201 190.373 190.435C181.992 222.67 215.516 190.435 215.516 190.435L206.49 153.688Z" fill="#F95265"/>
<path d="M263.857 728.108C263.857 728.108 256.121 748.738 270.949 753.895C285.777 759.053 285.132 749.382 313.499 769.368C341.865 789.354 365.074 777.749 368.298 773.236C370.877 770.013 369.587 748.093 307.696 722.305L263.857 728.108Z" fill="#696292"/>
<path d="M270.954 753.255C285.782 758.412 285.137 748.742 313.504 768.727C341.87 788.713 365.079 777.108 368.303 772.596C368.948 771.951 368.948 771.306 368.948 770.017C345.094 780.977 330.266 769.372 318.661 761.636C307.057 753.899 296.742 751.321 279.98 748.742C262.573 746.163 267.73 732.624 267.73 732.624C266.441 731.98 265.152 731.335 263.217 731.335C261.928 737.782 260.639 749.386 270.954 753.255Z" fill="#534F7A"/>
<path d="M296.105 310.995C296.105 310.995 322.538 464.433 320.604 517.943C319.314 572.097 327.696 673.959 319.314 724.245C316.736 740.362 254.845 745.52 251.621 727.469C242.596 677.827 250.977 563.071 250.977 563.071L222.61 354.835C222.61 354.835 264.515 350.967 296.75 310.995H296.105Z" fill="#D3DBE0"/>
<path d="M181.346 755.828C181.346 755.828 167.808 773.235 180.702 782.261C193.596 791.287 195.53 781.616 216.805 808.693C238.08 835.771 263.867 831.258 268.38 828.034C271.604 825.456 276.761 804.181 224.541 762.275L180.702 755.828H181.346Z" fill="#696292"/>
<path d="M180.689 782.264C193.583 791.29 195.517 781.619 216.792 808.696C238.067 835.774 263.855 831.261 268.368 828.037C269.012 827.393 269.657 826.748 269.657 825.459C243.224 828.682 232.909 813.854 223.884 803.539C214.858 792.579 205.832 787.422 190.359 780.33C174.242 773.238 183.268 761.634 183.268 761.634C182.623 760.344 180.689 759.7 178.755 759.055C175.531 764.857 171.018 775.817 180.044 782.264H180.689Z" fill="#534F7A"/>
<path d="M272.254 331.613C272.254 331.613 256.136 501.168 254.847 555.322C253.558 609.477 253.558 713.917 245.177 764.204C242.598 780.321 180.707 785.479 177.484 767.427C168.458 717.786 176.839 603.03 176.839 603.03L182.641 390.925C182.641 390.925 240.664 372.229 272.254 331.613Z" fill="#F7FBFE"/>
<path d="M178.118 191.713C180.697 189.778 272.243 138.848 283.848 147.873C295.452 156.899 327.043 199.449 314.149 260.695C294.808 352.242 309.636 396.081 309.636 396.081C309.636 396.081 269.02 431.539 180.697 412.843C180.697 412.843 183.275 413.488 183.275 364.491C183.275 271.655 140.081 218.79 178.118 191.713Z" fill="#D3DBE0"/>
<path d="M265.158 209.761C265.158 209.761 292.88 151.739 240.659 146.581C188.439 141.424 196.82 178.816 201.333 183.329C205.846 188.486 243.238 216.853 265.158 209.117V209.761Z" fill="#F95265"/>
<path d="M261.935 136.923C261.935 136.923 256.133 162.067 261.935 174.96C267.738 187.854 247.107 192.367 238.082 189.144C228.411 185.92 213.583 179.473 215.517 171.092C217.451 162.711 225.832 134.989 220.675 124.674C214.873 115.004 261.935 136.923 261.935 136.923Z" fill="#F7A280"/>
<path d="M213.577 59.5514C213.577 59.5514 189.078 76.3135 196.814 105.969C201.327 122.732 217.445 142.717 228.405 151.098C239.364 159.479 264.507 181.399 276.112 161.413C287.717 141.428 300.61 84.6945 276.112 59.5514C251.614 34.4083 213.577 59.5514 213.577 59.5514Z" fill="#F9AB88"/>
<path d="M274.829 64.7104C274.829 64.7104 252.909 89.8535 228.411 90.4982C203.912 91.1429 214.872 99.5239 216.806 103.392C218.74 106.616 223.898 125.956 215.517 117.575C212.293 114.352 204.557 107.26 201.978 113.707C199.399 120.154 217.451 136.916 218.096 142.719C218.74 146.587 176.835 111.128 178.124 79.5384C179.414 47.9483 201.978 23.4498 245.173 29.8968C280.631 35.699 285.789 42.7907 285.789 42.7907C285.789 42.7907 283.854 55.0399 273.539 64.7104H274.829Z" fill="#784B37"/>
<path d="M201.981 183.991H191.665L200.692 173.676L201.981 183.991Z" fill="#F95265"/>
<path d="M259.994 204.607C259.994 204.607 293.519 201.383 304.479 231.039C304.479 231.039 283.204 236.841 258.06 206.541L259.994 204.607Z" fill="#F95265"/>
<path d="M263.214 205.262C263.214 205.262 279.332 234.918 256.767 256.193C256.767 256.193 242.584 238.786 260.635 203.973L263.214 205.262Z" fill="#F95265"/>
<path d="M235.506 248.453C235.506 251.677 238.085 254.255 241.308 254.255C244.532 254.255 247.111 251.677 247.111 248.453C247.111 245.229 244.532 242.65 241.308 242.65C238.085 242.65 235.506 245.229 235.506 248.453Z" fill="#B5BDC0"/>
<path d="M281.266 236.196C281.266 239.42 283.845 241.999 287.069 241.999C290.292 241.999 292.871 239.42 292.871 236.196C292.871 232.973 290.292 230.394 287.069 230.394C283.845 230.394 281.266 232.973 281.266 236.196Z" fill="#B5BDC0"/>
<path d="M235.506 283.904C235.506 287.128 238.085 289.707 241.308 289.707C244.532 289.707 247.111 287.128 247.111 283.904C247.111 280.681 244.532 278.102 241.308 278.102C238.085 278.102 235.506 280.681 235.506 283.904Z" fill="#B5BDC0"/>
<path d="M281.266 272.297C281.266 275.52 283.845 278.099 287.069 278.099C290.292 278.099 292.871 275.52 292.871 272.297C292.871 269.073 290.292 266.495 287.069 266.495C283.845 266.495 281.266 269.073 281.266 272.297Z" fill="#B5BDC0"/>
<path d="M235.506 329.035C235.506 332.258 238.085 334.837 241.308 334.837C244.532 334.837 247.111 332.258 247.111 329.035C247.111 325.811 244.532 323.232 241.308 323.232C238.085 323.232 235.506 325.811 235.506 329.035Z" fill="#B5BDC0"/>
<path d="M281.266 316.798C281.266 320.021 283.845 322.6 287.069 322.6C290.292 322.6 292.871 320.021 292.871 316.798C292.871 313.574 290.292 310.995 287.069 310.995C283.845 310.995 281.266 313.574 281.266 316.798Z" fill="#B5BDC0"/>
<path d="M235.506 364.506C235.506 367.729 238.085 370.308 241.308 370.308C244.532 370.308 247.111 367.729 247.111 364.506C247.111 361.282 244.532 358.703 241.308 358.703C238.085 358.703 235.506 361.282 235.506 364.506Z" fill="#B5BDC0"/>
<path d="M281.266 352.898C281.266 356.122 283.845 358.701 287.069 358.701C290.292 358.701 292.871 356.122 292.871 352.898C292.871 349.675 290.292 347.096 287.069 347.096C283.845 347.096 281.266 349.675 281.266 352.898Z" fill="#B5BDC0"/>
<path d="M305.123 343.87C305.123 343.87 267.73 370.302 182.631 353.54C182.631 353.54 162 416.72 168.447 498.597C171.026 528.253 282.558 545.015 330.266 498.597C330.266 498.597 344.449 448.955 304.478 344.514L305.123 343.87Z" fill="#F95265"/>
<path d="M304.48 339.345C304.48 339.345 247.747 374.803 180.054 343.858V363.843C180.054 363.843 263.22 385.763 310.282 358.041L304.48 339.989V339.345Z" fill="#BD3444"/>
<path d="M287.717 77.6057C287.717 77.6057 246.456 118.866 181.987 102.749L172.961 78.2504C172.961 78.2504 234.207 89.2103 278.691 54.3966L287.717 77.6057Z" fill="#EEEEEF"/>
<path d="M167.811 29.2516C178.771 26.6728 185.218 31.1856 191.02 28.6069C203.914 22.8046 196.177 4.75313 218.742 0.884952C244.53 -3.62792 242.596 10.5554 255.489 11.2001C260.002 11.2001 263.226 6.04252 268.383 4.75313C284.501 0.884952 299.973 11.2001 303.842 27.3175C307.71 43.4349 297.395 58.9076 281.277 62.7757C279.343 63.4204 277.409 63.4204 275.475 63.4204C268.383 67.9333 255.489 76.3143 240.017 78.8931C216.808 82.1166 185.862 89.8529 184.573 84.6954C168.456 88.5636 152.983 78.2484 149.115 62.131C145.246 46.0136 150.404 33.7644 167.811 29.8963V29.2516Z" fill="#F3F4F4"/>
<path d="M281.273 62.1357C279.339 62.7804 277.405 62.7804 275.471 62.7804C268.379 67.2933 255.485 75.6743 240.012 78.2531C216.803 81.4766 185.858 89.2129 184.568 84.0554C168.451 87.9235 152.978 77.6084 149.11 61.491C148.466 59.5569 148.466 58.2675 148.466 56.3334C158.136 66.0039 172.319 66.6486 189.081 62.1357C215.514 55.0441 218.737 49.2418 230.987 38.9267C243.236 28.6115 270.313 36.9926 285.141 29.9009C293.522 26.0327 294.167 17.007 292.233 9.91534C297.39 13.7835 301.258 19.5858 303.192 26.6774C307.061 42.7948 296.746 58.2675 280.628 62.1357H281.273Z" fill="#E8E9E6"/>
<path d="M296.107 624.308L295.462 625.598L296.107 624.308ZM296.752 621.729V623.019V621.729ZM294.173 626.887L292.883 628.176L294.173 626.887ZM256.136 628.821L257.425 630.111L256.136 628.821ZM251.623 623.019L252.268 624.953L251.623 623.019ZM254.202 626.887L252.912 625.598L254.202 626.887ZM251.623 622.374C250.333 618.506 252.912 613.993 258.07 610.77C267.096 605.612 281.279 605.612 290.305 610.77C294.817 613.348 296.752 616.572 296.752 619.795L297.396 904.106C297.396 907.33 295.462 911.198 290.949 913.777C289.66 914.421 289.015 915.066 287.726 915.066H287.081L285.147 915.711H283.858H283.213H282.568L279.989 916.355H279.345H278.7H278.055H276.121H274.832H273.543C272.898 916.355 271.608 916.355 270.964 916.355H270.319H268.385H267.74L265.161 915.711H263.872H263.227C261.938 915.066 260.004 914.421 258.715 913.777L257.425 913.132L256.136 911.842L254.846 910.553V909.908V909.264L254.202 908.619L253.557 907.33V906.685V905.396L252.912 621.085L253.557 623.019L251.623 622.374Z" fill="#63432E"/>
<path d="M662.277 432.832V444.437L316.076 646.226V633.977L662.277 432.832Z" fill="#714930"/>
<path d="M100 540.5C100 551.46 104.317 562.264 118.5 570L212.93 633.976C216.153 635.91 222.277 631.711 225.5 633L223.89 639.133C226.468 639.778 232.271 629.855 234.849 630.5C236.139 630.5 235.211 637.5 236.5 637.5C237.789 638.145 236.711 638.489 238 639.133C238.645 639.133 242.855 636.5 243.5 636.5C244.789 636.5 243.875 644.936 245.164 644.936C246.454 644.936 247.711 641.5 249 641.5C250.289 641.5 252.256 640.855 253.546 641.5C254.835 641.5 254.835 646.225 255.48 646.225C256.769 646.225 258.058 646.225 258.703 646.225C259.992 646.225 261.282 646.225 262.571 646.225C263.861 646.225 265.15 646.225 266.439 646.225C267.729 646.225 268.374 646.225 269.663 646.225C271.597 646.225 272.886 646.225 274.82 645.58C275.465 645.58 276.755 645.58 277.399 645.58C279.978 645.58 283.202 644.936 285.78 644.291C287.07 644.291 287.714 643.646 289.004 643.646C290.293 643.646 291.583 643.002 292.227 643.002C293.517 643.002 294.5 640 295.451 642.357C296.74 642.357 296.211 639 297.5 639H299.319C301.253 638.355 301.589 634.867 305.5 636L308 637.5C310.579 636.211 313.421 635.289 316 634L318 645C316.066 646.289 310.923 649.449 308.345 650.093L306.411 650.738C304.476 651.383 302.542 652.027 300.608 652.672L299.319 653.317H298.674C297.385 653.317 296.74 653.961 295.451 653.961C294.161 654.606 292.872 654.606 292.227 654.606C290.938 654.606 289.648 655.251 289.004 655.251C288.359 655.251 287.07 655.896 286.425 655.896H285.78C283.202 656.54 279.978 656.54 277.399 657.185H276.755H274.82C272.886 657.185 271.597 657.185 269.663 657.83H268.374H266.439C265.15 657.83 263.861 657.83 262.571 657.83H260.637H258.703C257.414 657.83 256.124 657.83 255.48 657.83H253.546H251.611C250.322 657.83 249.033 657.83 247.743 657.185H246.454H245.164C243.875 657.185 242.586 656.54 240.652 656.54H238.718H237.428C236.139 655.896 234.205 655.896 232.915 655.251L230.981 654.606H230.336C227.758 653.961 225.179 652.672 222.6 652.027H221.955L221.311 651.383C218.087 650.093 214.864 648.804 211.64 646.87L113.002 590.136C98.8186 581.755 91.727 570.796 91.727 560.48C91.727 556.612 94 540.5 95 540C96 539.5 97 540.5 97 540.5H100Z" fill="#714930"/>
<path d="M662.281 432.844L316.08 633.989C287.713 650.107 241.94 650.107 213.573 633.989L114.935 577.256C86.5681 561.139 86.5681 534.061 114.935 517.944L461.136 316.799L662.926 432.844H662.281Z" fill="#A36940"/>
<path d="M355.401 372.885L373.453 362.57V338.715L355.401 349.675V372.885Z" fill="#404040"/>
<path d="M355.401 349.667L373.453 338.707L356.691 329.036L337.994 339.351L355.401 349.667Z" fill="#595A5A"/>
<path d="M338.006 339.345V363.199L355.413 372.87V349.66L338.006 339.345Z" fill="#393939"/>
<path d="M287.717 390.291L280.625 386.423V393.515L287.717 397.383V390.291Z" fill="#393939"/>
<path d="M350.907 354.186L343.171 349.673L280.636 386.421L287.727 390.289L350.907 354.186Z" fill="#595A5A"/>
<path d="M287.727 390.281V397.373L350.907 361.27V354.178L287.727 390.281Z" fill="#323132"/>
<path d="M276.117 358.048C276.117 358.048 327.693 356.113 327.693 381.901C327.693 384.48 325.759 385.77 314.799 382.546C307.707 380.612 303.194 381.901 298.682 384.48C293.524 387.704 272.249 381.257 272.249 381.257L264.513 378.033L263.868 359.337L276.117 358.692V358.048Z" fill="#F9AB88"/>
<path d="M176.179 194.304C181.981 189.792 198.743 184.634 205.835 207.198C212.926 229.763 204.545 317.441 210.347 326.467C212.926 330.98 281.264 354.189 281.264 354.189C281.264 354.189 267.725 360.636 273.528 384.49C273.528 384.49 175.534 379.332 167.798 355.478C154.904 314.862 148.457 216.224 175.534 193.66L176.179 194.304Z" fill="#ECF7FD"/>
<path d="M367.67 545.663C377.985 545.663 388.945 543.084 396.682 538.571L536.58 457.34C552.698 447.669 552.698 432.841 536.58 423.171L528.844 418.658L537.225 413.5C553.343 403.83 553.343 389.002 537.225 379.332L534.002 377.398C525.621 372.885 515.306 370.306 504.346 370.306C494.031 370.306 483.071 372.885 475.334 377.398L466.953 382.555L456.638 376.753C448.257 372.24 437.942 369.661 426.982 369.661C416.667 369.661 405.707 372.24 397.971 376.753L258.072 457.984C241.955 467.655 241.955 482.483 258.072 492.153L337.37 537.927C345.751 542.44 356.066 545.018 366.381 545.018L367.67 545.663Z" fill="#93603D"/>
<path d="M505.627 410.918V411.562C504.983 412.852 504.983 413.497 504.338 414.786L503.693 415.431C503.048 416.075 502.404 417.365 501.114 418.01L499.18 419.299L497.246 420.588L490.799 424.457V434.772L497.246 430.904H497.891L499.825 429.614L501.759 428.325L503.693 426.391L504.338 425.746L504.983 425.101L505.627 424.457L506.272 422.523V421.878L506.917 420.588V418.654V408.339C506.917 409.628 506.917 410.273 506.272 411.562L505.627 410.918Z" fill="#CD9253"/>
<path d="M504.978 443.798C504.333 445.087 504.333 445.732 503.689 447.021L503.044 447.666C502.399 448.311 501.754 449.6 500.465 450.245L498.531 452.179L496.597 453.468L390.222 515.359C388.288 516.648 386.354 517.293 383.775 517.938C383.13 517.938 382.486 518.582 381.196 518.582C379.907 518.582 379.262 519.227 377.973 519.227C376.684 519.227 375.394 519.872 374.105 519.872H372.815C370.881 519.872 369.592 519.872 367.658 519.872H367.013C365.079 519.872 363.79 519.872 361.856 519.872H361.211C359.277 519.872 357.987 519.227 356.053 519.227H355.409C354.119 518.582 352.185 518.582 350.896 517.938H350.251C348.317 517.293 347.028 516.648 345.738 515.359L285.137 480.546C278.69 476.677 276.111 472.165 276.111 467.652V477.967C276.111 482.48 279.335 487.637 285.137 490.861L345.738 525.674C347.028 526.319 348.962 526.964 350.251 527.608H350.896C351.54 528.253 352.83 528.253 353.474 528.253L355.409 528.898H356.053H356.698C357.987 528.898 358.632 529.542 359.921 529.542H361.211H361.856H363.145C364.434 529.542 365.079 529.542 366.368 529.542H367.658H369.592C370.881 529.542 372.171 529.542 372.815 529.542H373.46H374.749C375.394 529.542 376.684 529.542 377.328 528.898H378.618C379.907 528.898 380.552 528.253 381.841 528.253L383.775 527.608L384.42 526.964C386.354 526.319 388.933 525.029 390.867 524.385L497.242 462.494H497.886L499.176 461.205L501.11 459.271L503.044 457.337L503.689 456.692L504.333 456.047L504.978 455.402L505.623 453.468V452.824L506.267 451.534V449.6V439.285C506.267 440.574 506.267 441.219 505.623 442.509V443.153L504.978 443.798Z" fill="#CD9253"/>
<path d="M496.608 394.797C508.857 401.889 508.857 413.493 496.608 420.585L490.161 424.453L495.963 427.677C508.213 434.768 508.213 446.373 495.963 453.464L389.589 515.355C377.339 522.447 357.354 522.447 345.105 515.355L284.503 480.542C272.254 473.45 272.254 461.846 284.503 454.754L390.878 392.863C403.127 385.771 423.113 385.771 435.362 392.863L443.098 397.376L449.545 393.508C461.794 386.416 481.78 386.416 494.029 393.508L495.963 394.797H496.608Z" fill="#EBC677"/>
<path d="M488.21 406.411C491.433 408.345 491.433 410.924 488.21 412.858C484.986 414.792 480.473 414.792 477.249 412.858L463.71 405.121C460.487 403.187 460.487 400.608 463.71 398.674C466.934 396.74 471.447 396.74 474.671 398.674L488.21 406.411Z" fill="#CD9253"/>
<path d="M477.252 412.85C480.475 414.784 484.988 414.784 488.212 412.85L488.856 412.205L487.567 410.916L474.028 403.179C470.804 401.245 466.291 401.245 463.068 403.179H462.423L464.357 404.469L477.896 412.205L477.252 412.85Z" fill="#A36940"/>
<path d="M379.27 421.228V421.873C379.915 423.162 380.559 425.096 381.204 426.386L382.493 427.675C383.138 428.964 383.783 429.609 384.427 430.898C385.072 431.543 386.361 432.833 387.006 433.477C387.651 434.122 388.296 434.767 389.585 436.056L391.519 437.345C392.808 437.99 394.098 439.28 395.387 439.924L397.321 441.214C398.611 441.858 399.9 442.503 401.189 443.148L403.124 444.437C405.058 445.082 406.347 445.727 408.281 446.371L409.571 447.016C412.149 447.661 414.083 448.305 416.662 448.95C418.596 449.595 420.53 449.595 422.464 450.239H424.399C425.688 450.239 426.977 450.884 428.267 450.884H430.201C431.49 450.884 432.135 450.884 433.424 451.529H434.714H436.648H438.582C439.871 451.529 440.516 451.529 441.161 451.529H441.805C442.45 451.529 443.739 451.529 444.384 451.529L446.318 450.884H446.963L448.897 449.595C452.12 447.661 454.699 445.082 458.567 440.569C461.146 437.345 462.436 434.122 462.436 430.898V439.28C462.436 442.503 461.146 445.082 458.567 448.95C454.699 453.463 452.12 456.686 448.897 457.976L446.963 458.62H446.318H445.029H444.384H443.739H442.45H441.805H439.871H439.227H437.292H436.003H435.358H434.069C433.424 458.62 432.135 458.62 431.49 457.976H429.556C428.267 457.976 427.622 457.976 426.333 457.331C425.688 457.331 425.043 457.331 423.754 456.686C421.82 456.686 419.886 456.042 417.952 455.397H417.307C415.373 454.752 413.439 454.752 411.505 454.108L410.215 453.463C408.281 452.818 406.347 452.173 405.058 451.529L403.124 450.239C402.479 449.595 401.189 449.595 400.545 448.95L399.255 448.305L397.321 447.016C396.032 446.371 394.743 445.082 393.453 444.437L392.164 443.148L391.519 442.503L390.23 441.214C389.585 440.569 388.296 439.28 387.651 438.635L387.006 437.99L385.717 436.056L384.427 434.767L383.783 434.122C383.138 432.833 382.493 431.543 382.493 430.898V430.254V429.609L381.849 427.675C381.849 427.03 381.849 425.741 381.849 425.096V424.452V416.07C381.849 417.36 382.493 419.294 382.493 420.583L379.27 421.228Z" fill="#A43337"/>
<path d="M385.069 405.765C365.729 416.724 390.872 444.446 416.015 448.314C435.356 451.538 443.092 452.827 448.25 449.604C451.473 447.67 454.052 445.091 457.92 440.578C469.525 427.039 454.052 418.014 445.671 405.765C437.935 393.515 414.081 401.252 403.766 401.896C395.385 402.541 388.938 403.83 385.069 406.409V405.765Z" fill="#FEFEFE"/>
<path d="M386.356 407.042C367.66 417.357 392.158 442.5 416.012 446.368C434.708 449.592 441.8 450.236 447.602 447.013C450.826 445.079 453.404 442.5 456.628 438.632C467.588 426.383 452.76 418.002 445.023 407.042C437.287 396.082 414.723 402.529 404.407 403.174C396.026 403.818 390.224 405.108 386.356 407.042Z" fill="#BF3538"/>
<path d="M421.822 407.038C418.599 409.616 419.244 412.84 422.467 415.419C425.691 417.353 431.493 417.353 434.072 414.774C437.295 412.195 436.651 408.972 433.427 406.393C430.204 404.459 424.401 404.459 421.822 407.038Z" fill="#FEFEFE"/>
<path d="M314.146 462.488V463.132C314.791 464.422 315.436 466.356 316.081 467.645L317.37 468.935C318.015 470.224 318.659 470.869 319.304 472.158C319.949 472.803 321.238 474.092 321.883 474.737C322.527 475.381 323.172 476.026 324.462 477.316L326.396 478.605C327.685 479.25 328.974 480.539 329.619 481.184L331.553 482.473C332.843 483.118 334.132 483.762 335.421 484.407L337.355 485.697C339.29 486.341 340.579 486.986 342.513 487.631L343.802 488.275C345.737 488.92 348.315 489.565 350.894 490.209C352.828 490.854 354.762 490.854 356.696 491.499H358.63C359.92 491.499 361.209 492.143 362.499 492.143H364.433C365.722 492.143 366.367 492.143 367.656 492.788H368.946H370.88H372.814C374.103 492.788 374.748 492.788 375.393 492.788H376.037C376.682 492.788 377.971 492.788 378.616 492.788L380.55 492.143H381.195L383.129 490.854C386.352 488.92 388.931 486.341 392.799 481.828C395.378 478.605 396.667 475.381 396.667 472.158V480.539C396.667 483.762 395.378 486.341 392.799 490.209C388.931 494.722 386.352 497.946 383.129 499.235L381.195 499.88H380.55H379.261H378.616H377.971H376.682H376.037H374.103H373.458H371.524H370.235H369.59H368.301C367.656 499.88 366.367 499.88 365.722 499.235H363.788C362.499 499.235 361.854 499.235 360.565 498.59C359.92 498.59 359.275 498.59 357.986 497.946C356.052 497.946 354.118 497.301 352.183 497.301H351.539C349.605 496.656 347.671 496.656 345.737 496.012L345.092 495.367C343.158 494.722 341.224 494.078 339.934 493.433L338 492.143C337.355 491.499 336.066 491.499 335.421 490.854L334.132 490.209L332.198 488.92C330.909 488.275 329.619 486.986 328.33 486.341L326.396 485.052L325.751 484.407L324.462 483.118C323.817 482.473 322.527 481.184 321.883 480.539L321.238 479.894L319.949 477.96L318.659 476.671L318.015 476.026C317.37 474.737 316.725 473.447 316.725 472.803V472.158V471.513L316.081 469.579V467V466.356V457.975C316.081 459.264 316.725 461.198 316.725 462.488H314.146Z" fill="#A43337"/>
<path d="M319.95 447.669C300.609 458.629 325.752 486.35 350.895 490.219C370.236 493.442 377.972 494.731 383.13 491.508C386.353 489.574 388.932 486.995 392.8 482.482C404.405 468.944 388.932 459.918 380.551 447.669C372.815 435.419 348.961 443.156 338.646 443.801C330.265 444.445 323.818 445.735 319.95 448.313V447.669Z" fill="#FEFEFE"/>
<path d="M321.238 448.946C302.541 459.261 327.04 484.404 350.893 488.272C369.59 491.496 376.681 492.141 382.483 488.917C385.707 486.983 388.286 484.404 391.509 480.536C402.469 468.287 387.641 459.906 379.905 448.946C372.168 437.986 349.604 444.433 339.289 445.078C330.908 445.722 325.106 447.012 321.238 448.946Z" fill="#BF3538"/>
<path d="M356.704 448.961C353.48 451.54 354.125 454.764 357.348 457.343C360.572 459.277 366.374 459.277 368.953 456.698C372.177 454.119 371.532 450.896 368.308 448.317C365.085 446.383 359.282 446.383 356.704 448.961Z" fill="#FEFEFE"/>
<path d="M258.706 630.755C275.468 630.755 292.23 626.887 304.479 619.795C328.978 605.612 328.978 583.048 304.479 569.509C292.23 563.062 276.757 559.194 260.64 559.194C243.878 559.194 227.116 563.062 214.866 570.154C190.368 584.337 190.368 606.901 214.866 621.085C227.116 627.531 242.588 631.4 258.706 631.4V630.755Z" fill="#93603D"/>
<path d="M224.545 554.683C201.336 568.866 201.336 591.431 224.545 605.614C247.754 619.797 285.147 619.797 308.356 605.614C331.565 591.431 331.565 568.866 309 554.683C285.791 540.5 248.399 540.5 225.19 554.683H224.545Z" fill="#D0CFCF"/>
<path d="M210.357 530.828C179.412 548.88 178.767 577.891 209.712 595.942C240.658 613.994 290.944 613.994 322.534 595.942C353.479 577.891 354.124 548.88 323.179 530.828C292.233 512.777 241.947 512.777 210.357 530.828Z" fill="#A9ADAF"/>
<path d="M211.647 530.187C181.347 547.594 181.347 575.961 211.003 593.367C241.303 610.774 289.655 610.774 319.956 593.367C350.257 575.961 350.257 547.594 320.601 530.187C290.3 512.781 241.303 512.781 211.647 530.187Z" fill="#FEFEFE"/>
<path d="M211.647 530.187C181.347 547.594 181.347 575.961 211.003 593.367C241.303 610.774 289.655 610.774 319.956 593.367C350.257 575.961 350.257 547.594 320.601 530.187C290.3 512.781 241.303 512.781 211.647 530.187Z" fill="#E2E3E3"/>
<path d="M228.403 541.153C207.128 553.402 207.128 573.388 228.403 585.637C249.678 597.886 283.847 597.886 304.477 585.637C325.752 573.388 325.752 553.402 304.477 541.153C283.202 528.904 249.034 528.904 228.403 541.153Z" fill="#A9ADAF"/>
<path d="M296.098 557.258C296.098 557.258 298.032 545.653 297.387 537.917C296.098 529.536 304.479 528.246 293.519 520.51C282.559 512.129 288.361 512.774 281.27 522.444C273.533 532.759 269.021 543.074 266.442 546.298C263.863 550.166 272.889 567.573 296.743 557.258H296.098Z" fill="#7D703B"/>
<path d="M278.048 563.706C278.048 563.706 287.718 546.299 278.048 539.207C268.378 532.116 268.378 525.024 260.641 521.156C252.905 516.643 246.458 517.288 237.432 529.537C228.406 541.786 223.249 546.944 221.959 553.391C220.67 560.482 227.762 572.732 245.168 570.797C262.575 568.863 267.733 572.087 278.693 563.706H278.048Z" fill="#9A843E"/>
<path d="M319.96 543.077C327.051 550.168 332.854 554.037 325.117 563.062C317.381 572.088 318.67 576.601 307.066 577.246C295.461 577.89 285.146 586.916 281.278 577.246C276.765 567.575 269.029 571.443 275.476 561.128C281.923 551.458 297.395 545.656 304.487 545.656C311.579 545.656 320.604 542.432 320.604 542.432L319.96 543.077Z" fill="#96803E"/>
<path d="M308.992 582.403C308.992 582.403 308.992 572.088 295.453 570.799C282.559 569.509 278.046 564.352 256.771 567.575C235.496 570.799 230.983 564.352 220.668 568.865C210.998 573.377 201.327 574.022 211.643 579.824C221.958 585.627 236.786 597.231 262.573 594.652C287.717 592.074 317.373 599.165 308.992 582.403Z" fill="#7D703B"/>
<path d="M266.45 570.808L246.464 552.111C246.464 552.111 237.438 574.032 266.45 570.808Z" fill="#EF4942"/>
<path d="M305.763 535.979L286.421 555.965C286.421 555.965 308.342 565.636 305.763 535.979Z" fill="#EF4942"/>
<path d="M311.566 560.492L292.225 580.478C292.225 580.478 314.145 590.149 311.566 560.492Z" fill="#EF4942"/>
<path d="M229.057 541.783L209.715 561.769C209.715 561.769 231.635 571.44 229.057 541.783Z" fill="#EF4942"/>
<path d="M288.361 562.422C288.361 563.711 290.295 565.001 292.229 565.001C294.808 565.001 296.097 563.711 296.097 562.422C296.097 561.132 294.163 559.843 292.229 559.843C289.65 559.843 288.361 561.132 288.361 562.422Z" fill="#3D3D3D"/>
<path d="M219.387 568.225C219.387 569.515 221.321 570.804 223.255 570.804C225.834 570.804 227.123 569.515 227.123 568.225C227.123 566.936 225.189 565.647 223.255 565.647C220.676 565.647 219.387 566.936 219.387 568.225Z" fill="#3D3D3D"/>
<path d="M249.683 579.833C249.683 581.122 251.617 582.411 253.552 582.411C256.13 582.411 257.42 581.122 257.42 579.833C257.42 578.543 255.486 577.254 253.552 577.254C250.973 577.254 249.683 578.543 249.683 579.833Z" fill="#3D3D3D"/>
<path d="M257.415 539.857C257.415 541.146 259.349 542.436 261.283 542.436C263.862 542.436 265.152 541.146 265.152 539.857C265.152 538.567 263.218 537.278 261.283 537.278C258.705 537.278 257.415 538.567 257.415 539.857Z" fill="#3D3D3D"/>
</svg>
