<svg width="999" height="1000" viewBox="0 0 999 1000" fill="none" xmlns="http://www.w3.org/2000/svg">
<path d="M11.1957 507.562C6.54233 504.859 6.55197 498.135 11.2131 495.446L277.811 341.621C279.983 340.368 282.659 340.372 284.827 341.632L559.703 501.364C559.762 501.398 559.738 501.489 559.67 501.489V501.489C559.601 501.489 559.577 501.579 559.636 501.614L813.159 648.867C817.813 651.57 817.803 658.294 813.142 660.983L546.547 814.806C544.374 816.06 541.696 816.055 539.527 814.793L264.934 654.94L11.1957 507.562Z" fill="#FFD3BE"/>
<path d="M767.225 362.082C771.88 359.379 771.871 352.653 767.208 349.964L516.01 205.078C513.839 203.826 511.163 203.83 508.996 205.09L249.298 356.008L10.4485 494.941C5.79817 497.646 5.81051 504.367 10.4708 507.055L261.679 651.947C263.851 653.199 266.526 653.195 268.694 651.936L528.176 501.142C528.235 501.108 528.211 501.017 528.143 501.017V501.017C528.074 501.017 528.05 500.927 528.109 500.892L767.225 362.082Z" fill="#FFD3BE"/>
<path d="M586.739 159.82L585.746 383.79L430.308 474.172L430.805 250.203L586.739 159.82Z" fill="#E19768"/>
<path d="M574.328 189.614L573.832 370.875L447.197 444.373L447.694 263.111L574.328 189.614Z" fill="#C27D51"/>
<path d="M430.802 250.203L430.305 474.172L273.378 383.79L273.875 159.82L430.802 250.203Z" fill="#EFAE82"/>
<path d="M586.739 159.823L430.805 250.205L273.877 159.823L429.812 69.4405L586.739 159.823Z" fill="#F7F7F8"/>
<path d="M596.666 147.409V156.845L431.296 252.689V243.254L596.666 147.409Z" fill="#573A2D"/>
<path d="M431.302 243.254V252.689L264.94 156.845V147.409L431.302 243.254Z" fill="#714930"/>
<path d="M596.666 147.4L431.296 243.245L264.933 147.4L430.303 51.0584L596.666 147.4Z" fill="#A36940"/>
<path d="M447.193 444.372L573.828 370.874V364.418L447.193 437.419V444.372Z" fill="#573A2D"/>
<path d="M447.193 437.419L573.828 364.418V363.921L447.69 290.92L447.193 437.419Z" fill="#A36940"/>
<path d="M573.828 305.316L447.69 378.814V388.25L573.828 314.752V305.316Z" fill="#573A2D"/>
<path d="M573.828 304.825L474.507 247.715L447.69 263.11V378.819L573.828 305.321V304.825Z" fill="#A36940"/>
<path d="M573.828 238.774L447.69 311.775V321.707L573.828 248.21V238.774Z" fill="#573A2D"/>
<path d="M573.828 238.285L532.113 213.951L447.69 263.115V311.783L573.828 238.782V238.285Z" fill="#A36940"/>
<path d="M396.04 181.663C408.952 181.663 421.367 178.187 430.306 171.234C447.191 158.322 444.708 137.962 424.843 126.043C415.408 120.58 403.986 117.601 392.564 117.601C379.652 117.601 367.237 121.077 358.298 128.029C341.414 140.941 343.897 161.302 363.761 173.221C373.196 178.683 384.618 181.663 396.04 181.663Z" fill="#93603D"/>
<path d="M368.729 134.495C354.328 142.937 354.328 156.842 368.729 165.781C382.634 174.223 405.975 174.223 419.879 165.781C434.281 157.339 434.281 143.434 419.879 134.495C405.975 126.053 382.634 126.053 368.729 134.495Z" fill="#D0CFCF"/>
<path d="M360.281 119.597C341.41 130.522 340.913 148.4 360.281 159.325C379.152 170.25 409.942 170.25 429.309 159.325C448.18 148.4 448.677 130.522 429.806 119.597C410.935 108.671 380.145 108.671 360.778 119.597H360.281Z" fill="#D9DCDE"/>
<path d="M361.28 119.593C342.905 130.519 342.409 147.403 361.28 158.329C379.654 168.757 409.45 168.757 427.825 158.329C446.199 147.9 446.199 130.519 428.321 119.593C409.947 108.668 380.151 109.165 361.776 119.593H361.28Z" fill="#FEFEFE"/>
<path d="M361.28 119.593C342.905 130.519 342.409 147.403 361.28 158.329C379.654 168.757 409.45 168.757 427.825 158.329C446.199 147.9 446.199 130.519 428.321 119.593C409.947 108.668 380.151 109.165 361.776 119.593H361.28Z" fill="#FEFEFE"/>
<path d="M371.21 126.055C358.298 133.504 358.298 145.423 371.21 153.368C384.121 160.818 404.979 160.818 417.891 153.368C430.802 145.919 430.802 134.001 417.891 126.552C404.979 119.103 384.121 119.103 371.21 126.552V126.055Z" fill="#D9DCDE"/>
<path d="M368.729 120.583C354.328 129.026 354.328 142.931 368.729 151.869C382.634 160.312 405.975 160.312 419.879 151.869C434.281 143.427 434.281 129.522 419.879 120.583C405.975 112.141 382.634 112.141 368.729 120.583Z" fill="#D0CFCF"/>
<path d="M360.281 105.685C341.41 116.61 340.913 134.488 360.281 145.413C379.152 156.339 409.942 156.339 429.309 145.413C448.18 134.488 448.677 116.61 429.806 105.685C410.935 94.7596 380.145 94.7596 360.778 105.685H360.281Z" fill="#D9DCDE"/>
<path d="M361.28 105.682C342.905 116.607 342.409 133.492 361.28 144.417C379.654 154.846 409.45 154.846 427.825 144.417C446.199 133.988 446.199 116.607 428.321 105.682C409.947 94.7563 380.151 95.2529 361.776 105.682H361.28Z" fill="#FEFEFE"/>
<path d="M361.28 105.682C342.905 116.607 342.409 133.492 361.28 144.417C379.654 154.846 409.45 154.846 427.825 144.417C446.199 133.988 446.199 116.607 428.321 105.682C409.947 94.7563 380.151 95.2529 361.776 105.682H361.28Z" fill="#FEFEFE"/>
<path d="M371.21 112.144C358.298 119.593 358.298 131.511 371.21 139.457C384.121 146.906 404.979 146.906 417.891 139.457C430.802 132.008 430.802 120.089 417.891 112.64C404.979 105.191 384.121 105.191 371.21 112.64V112.144Z" fill="#D9DCDE"/>
<path d="M368.729 106.687C354.328 115.129 354.328 129.034 368.729 137.973C382.634 146.415 405.975 146.415 419.879 137.973C434.281 129.531 434.281 115.626 419.879 106.687C405.975 98.2445 382.634 98.2445 368.729 106.687Z" fill="#D0CFCF"/>
<path d="M360.281 92.2735C341.41 103.199 340.913 121.077 360.281 132.002C379.152 142.927 409.942 142.927 429.309 132.002C448.18 121.077 448.677 103.199 429.806 92.2735C410.935 81.3482 380.145 81.3482 360.778 92.2735H360.281Z" fill="#D9DCDE"/>
<path d="M361.28 91.7852C342.905 102.711 342.409 119.595 361.28 130.521C379.654 140.949 409.45 140.949 427.825 130.521C446.199 120.092 446.199 102.711 428.321 91.7852C409.947 80.8599 380.151 81.3565 361.776 91.7852H361.28Z" fill="#FEFEFE"/>
<path d="M361.28 91.7852C342.905 102.711 342.409 119.595 361.28 130.521C379.654 140.949 409.45 140.949 427.825 130.521C446.199 120.092 446.199 102.711 428.321 91.7852C409.947 80.8599 380.151 81.3565 361.776 91.7852H361.28Z" fill="#FEFEFE"/>
<path d="M371.21 98.7321C358.298 106.181 358.298 118.1 371.21 126.045C384.121 133.494 404.979 133.494 417.891 126.045C430.802 118.596 430.802 106.678 417.891 99.2287C404.979 91.7796 384.121 91.7796 371.21 99.2287V98.7321Z" fill="#D9DCDE"/>
<path d="M368.729 92.7752C354.328 101.218 354.328 115.123 368.729 124.061C382.634 132.504 405.975 132.504 419.879 124.061C434.281 115.619 434.281 101.714 419.879 92.7752C405.975 84.3329 382.634 84.3329 368.729 92.7752Z" fill="#D0CFCF"/>
<path d="M360.281 78.377C341.41 89.3023 340.913 107.18 360.281 118.105C379.152 129.031 409.942 129.031 429.309 118.105C448.18 107.18 448.677 89.3023 429.806 78.377C410.935 67.4517 380.145 67.4517 360.778 78.377H360.281Z" fill="#D9DCDE"/>
<path d="M361.28 77.8736C342.905 88.799 342.409 105.684 361.28 116.609C379.654 127.038 409.45 127.038 427.825 116.609C446.199 106.18 446.199 88.799 428.321 77.8736C409.947 66.9483 380.151 67.4449 361.776 77.8736H361.28Z" fill="#FEFEFE"/>
<path d="M361.28 77.8736C342.905 88.799 342.409 105.684 361.28 116.609C379.654 127.038 409.45 127.038 427.825 116.609C446.199 106.18 446.199 88.799 428.321 77.8736C409.947 66.9483 380.151 67.4449 361.776 77.8736H361.28Z" fill="#FEFEFE"/>
<path d="M371.21 84.8355C358.298 92.2846 358.298 104.203 371.21 112.149C384.121 119.598 404.979 119.598 417.891 112.149C430.802 104.7 430.802 92.7812 417.891 85.3321C404.979 77.8831 384.121 77.8831 371.21 85.3321V84.8355Z" fill="#D9DCDE"/>
<path d="M604.619 130.515C604.619 130.515 594.19 128.032 570.85 180.673C555.455 215.435 533.604 292.906 533.604 292.906C533.604 292.906 533.604 296.382 545.523 296.382C548.502 296.382 557.938 297.872 557.938 297.872C564.394 281.98 570.85 263.606 585.251 239.272C593.694 224.871 623.987 135.978 605.116 131.509L604.619 130.515Z" fill="#ECF4FB"/>
<path d="M691.514 292.405C691.514 292.405 710.882 301.84 712.868 328.657C712.868 328.657 690.521 321.705 691.514 292.405Z" fill="#BD3444"/>
<path d="M685.566 290.427C685.566 290.427 706.424 284.964 725.295 303.835C725.295 303.835 703.941 313.271 685.566 290.427Z" fill="#BD3444"/>
<path d="M620.499 595.839C620.499 595.839 628.941 609.743 619.506 614.213C610.07 618.682 610.07 611.73 592.192 627.125C574.315 642.519 557.927 636.064 555.444 633.084C549.981 625.138 559.416 617.193 599.145 595.839H620.499Z" fill="#696292"/>
<path d="M592.202 333.14C592.202 333.14 582.27 436.434 585.746 458.781C589.222 481.128 598.161 596.341 598.161 596.341C598.161 596.341 600.147 599.817 606.603 600.314C618.522 601.307 620.012 597.831 620.012 597.831C620.012 597.831 640.869 502.979 628.454 469.706L642.856 359.46V344.065C642.856 344.065 605.61 339.595 592.698 333.14H592.202Z" fill="#F9AB88"/>
<path d="M595.178 597.83C595.178 597.83 596.668 593.36 596.171 587.898C596.171 587.898 611.566 594.354 621.994 588.394C621.994 588.394 621.001 595.347 622.491 600.313C624.477 605.279 597.164 604.782 595.178 597.83Z" fill="#696292"/>
<path d="M619.021 614.206C609.585 619.172 609.585 611.723 591.707 627.118C573.83 642.513 557.938 636.057 554.959 633.077C554.462 632.581 554.462 632.084 554.462 631.091C571.347 637.547 580.286 628.608 587.238 622.649C594.687 616.689 601.143 614.206 612.565 611.723C623.987 609.24 620.014 599.805 620.014 599.805C620.014 597.818 620.511 588.879 621.504 588.383C621.504 599.308 628.953 608.744 619.021 614.206Z" fill="#534F7A"/>
<path d="M584.254 309.787C584.254 309.787 574.818 401.659 580.281 454.299C585.743 506.939 591.206 565.539 589.716 595.832C589.22 605.764 626.962 616.689 629.445 595.832C632.424 571.002 643.35 500.484 628.452 469.694L653.282 334.617C653.282 334.617 609.084 327.665 584.254 309.787Z" fill="#D3DBE0"/>
<path d="M646.327 341.08C646.327 341.08 636.395 450.83 639.872 474.667C643.348 498.504 652.287 621.663 652.287 621.663H672.648C672.648 621.663 694.002 514.892 680.593 486.089L694.002 368.89V352.502C694.002 352.502 658.743 347.536 646.327 341.08Z" fill="#F9AB88"/>
<path d="M674.63 616.69C674.63 616.69 683.072 630.595 673.637 635.064C664.201 639.534 664.201 632.581 646.324 647.976C628.446 663.371 612.058 656.915 609.575 653.935C604.112 645.99 613.548 633.574 653.276 612.22L674.63 616.69Z" fill="#696292"/>
<path d="M649.309 618.682C649.309 618.682 650.799 614.213 650.302 608.75C650.302 608.75 665.697 615.206 676.126 609.247C676.126 609.247 675.133 616.199 676.622 621.165C678.609 626.131 651.295 625.635 649.309 618.682Z" fill="#696292"/>
<path d="M673.637 635.074C664.201 640.04 664.201 632.591 646.323 647.985C628.446 663.38 612.554 656.924 609.575 653.945C609.078 653.448 609.078 652.951 609.078 651.958C625.963 658.414 634.902 649.475 641.854 643.516C649.303 637.557 655.759 635.074 667.181 632.591C678.603 630.108 674.63 620.672 674.63 620.672C674.63 618.686 675.127 609.747 676.12 609.25C676.12 620.175 683.569 629.611 673.637 635.074Z" fill="#534F7A"/>
<path d="M698.975 324.189C698.975 324.189 716.356 350.509 703.444 413.081C690.532 475.653 686.063 494.028 686.063 494.028C686.063 494.028 689.042 501.973 686.063 552.131C683.083 599.308 683.083 596.329 682.09 618.676C681.593 627.615 645.341 631.588 643.851 612.717C640.872 572.492 636.899 467.708 636.899 467.708L627.96 367.393L583.762 309.787C583.762 309.787 674.641 340.577 698.478 324.189H698.975Z" fill="#F7FBFE"/>
<path d="M662.716 128.027C662.716 128.027 677.118 132.993 684.07 157.327C690.526 182.157 661.226 159.313 661.226 159.313L662.716 128.027Z" fill="#F95265"/>
<path d="M693.507 158.33C691.521 156.84 610.077 124.064 601.138 130.52C592.2 137.472 575.315 167.765 588.227 211.963C607.098 276.522 583.757 309.795 583.757 309.795C583.757 309.795 643.847 351.013 698.473 324.196C698.473 324.196 698.97 327.176 693.01 290.427C682.582 219.909 722.31 179.684 693.01 158.826L693.507 158.33Z" fill="#D3DBE0"/>
<path d="M603.618 134.983C603.618 134.983 567.366 179.677 584.25 216.426C597.659 245.726 595.176 260.127 594.679 268.073C593.686 279.992 583.754 309.788 583.754 309.788C583.754 309.788 635.897 258.638 626.959 249.699C618.02 240.76 609.577 173.221 609.577 171.732C609.577 170.242 603.618 134.983 603.618 134.983Z" fill="#D3DBE0"/>
<path d="M622.491 174.22C622.491 174.22 601.137 129.526 641.362 125.553C681.587 121.58 675.132 150.383 671.655 153.86C668.179 157.832 639.376 179.683 622.491 173.724V174.22Z" fill="#F95265"/>
<path d="M630.44 170.25C630.44 170.25 604.616 167.767 596.174 190.611C596.174 190.611 612.562 195.08 631.93 171.74L630.44 170.25Z" fill="#F95265"/>
<path d="M627.96 170.74C627.96 170.74 615.545 193.584 632.926 209.972C632.926 209.972 643.851 196.563 629.946 169.746L627.96 170.74Z" fill="#F95265"/>
<path d="M645.341 210.965C645.341 213.448 643.355 215.434 640.872 215.434C638.388 215.434 636.402 213.448 636.402 210.965C636.402 208.482 638.388 206.495 640.872 206.495C643.355 206.495 645.341 208.482 645.341 210.965Z" fill="#B5BDC0"/>
<path d="M610.577 201.539C610.577 204.022 608.591 206.008 606.108 206.008C603.625 206.008 601.638 204.022 601.638 201.539C601.638 199.056 603.625 197.07 606.108 197.07C608.591 197.07 610.577 199.056 610.577 201.539Z" fill="#B5BDC0"/>
<path d="M645.341 238.288C645.341 240.771 643.355 242.757 640.872 242.757C638.388 242.757 636.402 240.771 636.402 238.288C636.402 235.805 638.388 233.819 640.872 233.819C643.355 233.819 645.341 235.805 645.341 238.288Z" fill="#B5BDC0"/>
<path d="M610.577 229.347C610.577 231.83 608.591 233.817 606.108 233.817C603.625 233.817 601.638 231.83 601.638 229.347C601.638 226.864 603.625 224.878 606.108 224.878C608.591 224.878 610.577 226.864 610.577 229.347Z" fill="#B5BDC0"/>
<path d="M645.341 273.037C645.341 275.52 643.355 277.506 640.872 277.506C638.388 277.506 636.402 275.52 636.402 273.037C636.402 270.554 638.388 268.567 640.872 268.567C643.355 268.567 645.341 270.554 645.341 273.037Z" fill="#B5BDC0"/>
<path d="M610.577 263.611C610.577 266.094 608.591 268.08 606.108 268.08C603.625 268.08 601.638 266.094 601.638 263.611C601.638 261.128 603.625 259.141 606.108 259.141C608.591 259.141 610.577 261.128 610.577 263.611Z" fill="#B5BDC0"/>
<path d="M620.5 121.584C620.5 121.584 624.97 140.952 620.5 150.884C616.031 160.816 631.922 164.292 638.875 161.809C646.324 159.326 657.746 154.36 656.256 147.904C654.766 141.448 648.31 120.094 652.283 112.149C656.752 104.699 620.5 121.584 620.5 121.584Z" fill="#F7A280"/>
<path d="M658.243 62.4884C658.243 62.4884 680.094 84.339 674.135 107.68C670.659 120.591 656.257 128.537 647.815 135.489C639.372 141.945 618.515 156.843 609.576 141.449C600.637 126.054 590.705 82.3526 609.576 62.985C628.447 43.6173 657.747 62.985 657.747 62.985L658.243 62.4884Z" fill="#F9AB88"/>
<path d="M609.582 71.9163C609.582 71.9163 623.487 73.4061 641.365 91.7805C647.324 97.7398 648.318 118.101 654.773 111.645C657.257 109.162 663.712 104.692 664.209 108.169C667.685 125.55 641.862 131.012 646.828 141.938C648.318 145.414 691.026 130.019 685.563 81.8484C683.08 57.5147 666.692 40.6301 631.93 43.6097C604.616 45.5961 603.126 72.4129 603.126 72.4129C603.126 72.4129 603.623 71.4197 609.582 71.9163Z" fill="#784B37"/>
<path d="M682.575 152.859C682.575 152.859 671.65 157.825 660.228 162.791C649.303 167.757 674.133 143.424 674.133 143.424L682.575 153.356V152.859Z" fill="#F95265"/>
<path d="M694.001 292.905C694.001 292.905 644.837 328.661 589.217 292.905C589.217 292.905 561.904 335.613 573.822 425.002C573.822 425.002 648.313 464.731 709.892 433.445C709.892 433.445 718.831 348.028 694.001 292.905Z" fill="#F95265"/>
<path d="M589.724 287.449C589.724 287.449 637.895 316.749 694.508 289.436L701.957 305.327C701.957 305.327 624.983 325.688 584.758 302.844L589.724 287.449Z" fill="#BD3444"/>
<path d="M685.064 64.9588C685.064 64.9588 649.805 92.7687 602.13 74.3943L597.661 54.5301C597.661 54.5301 643.845 68.435 680.594 46.0878L685.56 64.9588H685.064Z" fill="#EEEEEF"/>
<path d="M597.66 17.2848C606.102 16.2915 610.571 20.2644 615.041 18.7746C625.47 15.2983 621.497 0.896756 638.878 -0.0964563C658.742 -1.08967 656.259 9.33906 665.695 11.3255C669.171 11.8221 672.151 7.84924 676.123 7.35263C688.539 5.86282 699.96 15.2983 700.954 27.7135C702.443 40.1286 693.008 51.5506 680.593 52.5438C679.103 52.5438 677.613 52.5438 676.123 52.5438C670.661 55.5234 659.735 60.4895 647.32 60.9861C629.442 61.4827 605.109 64.4623 604.612 60.4895C592.197 61.9793 580.775 52.5438 579.782 40.1286C578.292 27.7135 583.755 18.7746 597.163 17.2848H597.66Z" fill="#F3F4F4"/>
<path d="M681.59 52.5445C680.1 52.5445 678.61 52.5445 677.12 52.5445C671.658 55.5242 660.732 60.4902 648.317 60.9868C630.439 61.4834 606.105 64.4631 605.609 60.4902C593.194 61.9801 581.772 52.5445 580.779 40.1294C580.779 38.6396 580.779 37.6463 580.779 36.1565C587.234 44.5988 598.16 46.0887 611.072 44.1022C631.929 41.1226 634.909 36.6531 645.337 30.1973C655.766 23.7414 675.134 32.1837 687.549 28.7074C694.501 26.721 695.495 19.7685 694.998 13.8092C698.474 17.2855 700.957 22.2516 701.454 27.7142C702.944 40.1294 693.508 51.5513 681.093 52.5445H681.59Z" fill="#E8E9E6"/>
<path d="M552.975 536.736L553.969 787.522L745.162 677.276L744.169 426.49L552.975 536.736Z" fill="#EFAE82"/>
<path d="M78.2123 261.127L79.2055 511.913L553.961 787.529L552.968 536.743L78.2123 261.127Z" fill="#E19768"/>
<path d="M208.817 396.196L209.314 557.593L514.726 734.882L514.23 573.485L208.817 396.196Z" fill="#C27D51"/>
<path d="M78.2133 261.122L552.969 536.739L744.162 426.492L451.164 256.156L269.407 150.379L78.2133 261.122Z" fill="#EFAE82"/>
<path d="M556.947 543.686V554.612L753.603 441.385V430.46L556.947 543.686Z" fill="#714930"/>
<path d="M69.2787 260.126V271.548L556.946 554.614V543.688L69.2787 260.126Z" fill="#573A2D"/>
<path d="M69.28 260.135L556.947 543.697L753.603 430.471L452.163 255.169L265.439 146.909L69.28 260.135Z" fill="#A36940"/>
<path d="M514.23 723.966L514.726 734.892L209.314 557.604V546.678L514.23 723.966Z" fill="#573A2D"/>
<path d="M209.31 546.667L338.924 471.68L514.226 573.484V594.341V723.956L209.31 546.667Z" fill="#A36940"/>
<path d="M209.31 469.695L514.226 646.983V651.452V657.908L209.31 480.62V469.695Z" fill="#573A2D"/>
<path d="M209.31 469.698L272.379 433.446L514.226 573.488V594.346V646.986L209.31 469.698Z" fill="#A36940"/>
<path d="M198.399 300.851C211.31 300.851 223.726 297.375 232.665 290.422C249.549 277.511 247.066 257.15 227.202 245.231C217.766 239.768 206.344 236.789 194.922 236.789C182.011 236.789 169.596 240.265 160.657 247.218C143.772 260.129 146.255 280.49 166.119 292.409C175.555 297.871 186.977 300.851 198.399 300.851Z" fill="#93603D"/>
<path d="M141.284 204.022C134.331 207.995 134.331 214.451 141.284 218.92L144.263 220.907L148.236 218.92L146.25 217.927C140.787 214.947 140.787 209.485 146.25 206.505L152.706 203.029C158.168 200.049 167.107 200.049 172.57 203.029L174.556 204.022L178.529 202.036L175.549 200.049C168.597 196.076 157.175 196.076 150.223 200.049L141.78 205.015L141.284 204.022Z" fill="#D7D5D5"/>
<path d="M177.53 201.04L173.557 203.026L171.57 202.033L170.08 201.537H169.584L168.591 201.04H168.094H167.597H167.101H166.604H166.108H164.618H164.121H163.128H162.631H161.638H161.142H160.645H160.148H159.652H159.155H158.659H158.162H157.665H157.169H156.672H156.176H155.182H154.686L153.196 201.537C152.699 202.033 151.706 202.033 151.209 202.53L144.754 206.006C141.774 207.496 140.781 209.482 140.781 211.965V214.945C140.781 212.959 142.271 210.972 144.754 208.986L151.209 205.509C151.706 205.013 152.699 205.013 153.196 204.516L154.686 204.02H155.182H156.176H156.672H157.169H157.665H158.162H158.659H159.155H159.652H160.645H161.142H162.135H162.631H164.121H164.618H165.114H165.611H166.108H166.604L167.597 204.516H168.094L169.584 205.013L171.57 206.006L175.543 204.02V201.04H177.53Z" fill="#FEFEFE"/>
<path d="M144.26 220.405L141.28 218.419H140.287L139.79 217.922L139.294 217.425L138.797 216.929L137.804 215.936L137.307 215.439L136.811 214.942V214.446L136.314 213.949V213.453L135.817 212.956V212.459V211.963V211.466V214.446V214.942V215.439V215.936L136.314 216.432V216.929L136.811 217.425V217.922L137.307 218.419L137.804 218.915L138.797 219.908L139.294 220.405L139.79 220.902H140.287L140.783 221.398H141.28L144.26 223.385L147.736 220.902V218.419L144.26 220.405Z" fill="#FEFEFE"/>
<path d="M233.16 216.931V217.428V217.924V218.421V218.917V219.414V219.911V220.407V220.904L232.664 221.4L232.167 221.897L231.67 222.394L231.174 222.89L230.677 223.883L230.181 224.38L229.684 225.373L229.187 225.87L228.194 227.36L227.697 227.856L226.704 228.85L226.208 229.346L225.711 229.843L225.214 230.339L224.718 230.836L224.221 231.333L223.725 231.829L223.228 232.326L222.235 232.822L221.242 233.319C220.248 233.816 219.255 234.312 218.262 234.809L217.269 235.305C216.276 235.802 215.282 236.299 214.289 236.299H213.793C212.799 236.795 211.806 237.292 210.813 237.292C209.82 237.292 209.323 237.788 208.33 237.788L206.343 238.285C205.35 238.285 204.854 238.782 203.86 238.782L201.874 239.278H200.881C199.888 239.278 198.894 239.775 197.901 239.775H196.908C195.915 239.775 194.425 239.775 193.432 240.271H192.935C191.445 240.271 190.452 240.271 188.962 240.271H188.466C187.472 240.271 186.479 240.271 185.486 240.271C184.493 240.271 183.996 240.271 183.003 240.271C182.506 240.271 181.513 240.271 181.017 240.271C180.023 240.271 179.527 240.271 179.03 239.775C178.037 239.775 177.044 239.278 176.051 239.278C175.057 239.278 173.568 238.782 172.574 238.285H172.078C171.084 237.788 169.595 237.788 168.601 237.292L167.608 236.795C166.615 236.299 165.622 236.299 165.125 235.802L164.132 235.305C163.139 234.809 162.642 234.809 161.649 234.312L160.656 233.816C159.663 233.319 158.669 232.822 157.18 232.326C148.241 227.36 143.771 220.407 143.771 213.951C143.771 230.339 143.771 246.231 143.771 262.619C143.771 269.075 148.241 276.027 157.18 280.993C158.173 281.49 159.166 281.986 160.656 282.483L161.649 282.98C162.146 283.476 163.139 283.476 163.635 283.973H164.132L165.125 284.469C166.118 284.966 167.112 284.966 167.608 285.463L168.601 285.959H169.098C170.091 286.456 171.084 286.456 172.078 286.456H172.574L174.064 286.952C175.057 286.952 175.554 287.449 176.547 287.449L178.534 287.946H179.527C180.52 287.946 181.017 287.946 182.01 288.442H183.003H183.996C184.989 288.442 185.486 288.442 185.983 288.442H186.976H188.466H188.962C189.955 288.442 190.452 288.442 191.445 288.442H192.439H192.935C193.928 288.442 194.922 288.442 195.915 288.442H196.411H197.405C198.398 288.442 199.391 287.946 200.384 287.946H200.881H201.377L202.867 287.449C203.86 287.449 204.357 286.952 205.35 286.952L207.337 286.456C208.33 286.456 208.826 285.959 209.82 285.959H210.316C211.31 285.463 212.303 285.463 213.296 284.966H213.793C214.786 284.469 215.779 283.973 216.772 283.973L217.765 283.476C218.759 282.98 219.752 282.483 220.745 281.986L221.242 281.49L221.738 280.993L222.731 280.497L223.228 280L224.221 279.503L224.718 279.007L225.214 278.51L225.711 278.014L226.208 277.517H226.704L227.697 276.524L228.194 276.027L229.187 274.537L229.684 274.041L230.181 273.047L230.677 272.551L231.174 271.558V271.061L231.67 270.564L232.167 270.068L232.664 269.571V269.075V268.578V268.081V267.585V267.088V266.592V266.095V265.598V265.102V264.605V264.109V263.612C232.664 247.224 232.664 231.333 232.664 214.945V215.938L233.16 216.931Z" fill="#E2E3E4"/>
<path d="M220.245 197.563C237.627 207.495 237.627 223.883 220.245 234.312C202.864 244.244 174.558 244.244 157.177 234.312C139.795 224.38 139.795 207.992 157.177 197.563C174.558 187.631 202.864 187.631 220.245 197.563Z" fill="#F7F7F8"/>
<path d="M227.695 236.289V236.785H228.192H228.688V237.282L229.185 237.779L229.682 238.275H230.178V238.772V239.268H230.675V239.765V240.262V240.758V241.255V245.228V244.731V244.235V243.738L230.178 243.241V242.745L229.682 242.248L229.185 241.751L228.688 241.255L228.192 240.758H227.695L227.199 240.262V236.289H227.695Z" fill="#939292"/>
<path d="M202.857 252.681L204.347 253.178H204.844L205.837 253.674H206.334H207.327H207.824H208.817H209.313H210.803H211.3H212.293H212.79H213.783H214.279H214.776H215.273H215.769H216.266H217.259H217.756H218.749H219.245L220.735 253.178L221.232 252.681H221.729L222.722 252.185L231.661 247.219C234.64 245.729 236.13 243.246 236.13 241.259V245.232C236.13 247.715 234.64 249.702 231.661 251.688L222.722 256.654L221.729 257.151H221.232L220.735 257.647L219.245 258.144H218.749H217.756H217.259H216.762H215.769H215.273H214.776H213.783H213.286H212.79H211.796H211.3H210.803H209.81H209.313H208.817H207.824H207.327H205.837H205.34H204.347H203.851H202.857H202.361L201.368 257.647H200.871L199.381 257.151L197.395 256.157V252.185L199.381 253.178L202.857 252.681Z" fill="#FEFEFE"/>
<path d="M200.382 251.2L202.368 252.193C208.327 255.669 217.763 255.669 223.722 252.193L232.661 247.227C238.62 243.751 238.62 238.288 232.661 234.812L230.675 233.819L226.702 236.302L227.198 236.798C231.668 239.281 231.668 243.254 227.198 245.737L220.743 249.71C216.273 252.193 209.321 252.193 204.851 249.71L204.354 249.213L200.382 251.696V251.2Z" fill="#D7D5D5"/>
<path d="M201.366 207.981C201.366 205.498 200.373 203.511 198.884 203.015L196.401 201.525C197.89 202.518 198.884 204.008 198.884 206.491V206.988L201.366 208.477V207.981Z" fill="#D7D5D5"/>
<path d="M195.913 197.563H196.409H196.906H197.402H197.899H198.396H198.892H199.389H199.885L200.382 198.059L199.885 197.563L197.899 196.569H197.402H196.906H196.409H195.913H195.416H194.919H194.423H193.926H193.43H192.933L191.94 197.066L183.001 202.032L182.008 202.529H181.511L181.014 203.025L180.518 203.522L180.021 204.019L179.524 204.515L179.028 205.012L178.531 205.508V206.005V206.502L178.035 206.998V207.495L177.538 207.991V208.488L177.041 209.481L176.545 209.978V210.474V210.971V211.468L176.048 211.964L175.552 212.957V213.454V213.951V214.447V214.944V215.44V215.937V216.434V216.93V217.924V219.413V220.407C175.552 220.903 175.552 221.896 175.552 222.393L178.035 223.883C178.035 223.386 178.035 222.89 178.035 221.896V220.903V219.413V218.917V217.924V217.427V216.93V216.434V215.937L178.531 214.944V214.447L179.028 213.454L179.524 212.461V211.964L180.021 210.971L180.518 209.978V209.481L181.014 208.985L181.511 208.488L182.008 207.991L182.504 207.495L183.001 206.998L183.497 206.502L183.994 206.005L184.491 205.508L184.987 205.012L185.484 204.515L185.98 204.019H186.477L187.47 203.522L196.409 198.556L197.402 198.059H197.899L195.913 197.563Z" fill="#D7D5D5"/>
<path d="M194.42 198.559C199.883 195.58 204.352 198.063 204.352 204.022V205.015C204.352 205.512 204.352 206.505 204.352 207.002L201.869 208.492V207.995C201.869 203.029 198.393 201.042 193.924 203.525L186.971 207.498C182.502 209.981 179.025 215.941 179.025 220.907V221.403L176.542 222.893C176.542 222.396 176.542 221.9 176.542 220.907V219.913C176.542 213.458 181.012 206.009 186.474 203.029L195.413 198.063L194.42 198.559Z" fill="#E2E3E4"/>
<path d="M534.598 433.445C542.048 433.445 549.497 431.955 555.456 428.479L611.572 396.2C622.994 389.744 622.994 378.819 611.572 372.363L512.748 315.253C507.285 311.777 499.836 310.287 491.89 310.287C484.441 310.287 476.992 311.777 471.033 315.253L463.584 319.226L457.625 315.75C452.162 312.273 444.713 310.784 437.264 310.784C429.815 310.784 422.366 312.273 416.406 315.75L414.42 316.743C402.998 323.199 402.998 334.124 414.42 340.58L420.379 344.056L414.917 347.036C403.495 353.492 403.495 364.417 414.917 370.873L513.741 427.983C519.204 431.459 527.149 432.949 534.598 432.949V433.445Z" fill="#93603D"/>
<path d="M411.43 311.281V311.778C411.926 312.771 412.423 313.764 412.919 314.261L413.416 314.758C413.913 315.751 414.906 316.744 415.899 317.241C416.396 317.737 417.389 318.234 417.885 318.731C418.382 319.227 418.879 319.724 419.872 320.22L425.831 323.697V333.132L419.872 329.656H419.375L417.885 328.663C417.389 328.166 416.396 327.669 415.899 327.173C415.402 326.676 414.409 325.683 413.913 325.186L413.416 324.69L412.919 324.193L412.423 323.2L411.43 321.71V321.214V320.717L410.933 319.724V318.234V317.737V308.302C410.933 309.295 410.933 310.288 411.43 311.281Z" fill="#CD9253"/>
<path d="M411.933 342.064C412.43 343.058 412.926 344.051 413.423 344.547L413.92 345.044C414.416 346.037 415.41 347.03 416.403 347.527C416.899 348.024 417.893 348.52 418.389 349.017C418.886 349.513 419.382 350.01 420.376 350.507L519.2 407.616C521.187 408.61 522.676 409.603 525.159 410.099C525.656 410.596 526.649 410.596 527.146 410.596C528.139 411.093 529.132 411.093 530.126 411.093C531.119 411.093 532.609 411.589 533.602 411.589H534.595C536.085 411.589 538.071 412.086 539.561 412.086H540.554C542.044 412.086 544.03 412.086 545.52 411.589H546.017C547.507 411.589 548.997 411.093 550.486 410.596H551.48C552.969 410.099 553.963 409.603 555.452 409.603L556.446 409.106C557.935 408.61 559.425 407.616 560.915 407.12L617.032 374.84C622.991 371.364 625.474 366.895 625.474 362.922V372.357C625.474 376.827 622.494 381.296 617.032 384.276L560.915 416.555C559.425 417.549 558.432 418.045 556.942 418.542L555.949 419.038C554.956 419.535 554.459 419.535 553.466 420.032L551.976 420.528H550.983H549.99C548.997 420.528 548.003 421.025 547.01 421.025H546.017H545.52H544.527C543.534 421.025 542.541 421.025 541.547 421.025H540.554H539.561H538.071C537.078 421.025 536.085 421.025 534.595 421.025H534.098H533.105C532.112 421.025 531.615 421.025 530.622 420.528L529.629 420.032C528.636 420.032 527.642 419.535 526.649 419.535L525.159 419.038L524.663 418.542C522.676 418.045 520.69 417.052 518.704 416.059L419.879 358.949H419.382L417.893 357.956C417.396 357.459 416.403 356.963 415.906 356.466C415.41 355.969 414.416 354.976 413.92 354.48L413.423 353.983L412.926 353.486L412.43 352.493L411.437 351.003V350.507V350.01L410.94 349.017V347.527V347.03V337.595C410.94 338.588 410.94 339.581 411.437 340.575V341.071L411.933 342.064Z" fill="#CD9253"/>
<path d="M419.387 296.384C407.965 302.84 407.965 313.766 419.387 320.221L425.347 323.698L419.884 326.677C408.462 333.133 408.462 344.058 419.884 350.514L518.709 407.624C530.131 414.08 548.505 414.08 559.927 407.624L616.043 375.345C627.465 368.889 627.465 357.963 616.043 351.508L517.219 294.398C505.797 287.942 487.422 287.942 476 294.398L468.551 298.371L462.592 294.894C451.17 288.439 432.796 288.439 421.374 294.894L419.387 295.888V296.384Z" fill="#EBC677"/>
<path d="M427.33 307.306C424.351 308.796 424.351 311.775 427.33 313.265C430.31 314.755 434.779 314.755 437.262 313.265L449.677 305.816C452.657 304.326 452.657 301.347 449.677 299.857C446.698 298.367 442.228 298.367 439.745 299.857L427.33 307.306Z" fill="#CD9253"/>
<path d="M437.265 313.263C434.285 314.753 429.816 314.753 427.333 313.263L426.836 312.766C427.333 312.27 427.829 311.773 428.326 311.276L440.741 303.827C443.721 302.337 448.19 302.337 450.673 303.827L451.17 304.324C450.673 304.821 450.176 305.317 449.68 305.814L437.265 313.263Z" fill="#A36940"/>
<path d="M571.349 314.256C571.349 314.256 565.389 314.256 556.45 319.222C547.015 324.684 546.518 328.161 543.042 333.623C539.566 339.086 537.579 343.555 540.062 345.542C543.042 347.528 556.947 343.059 562.41 336.603C565.886 332.63 580.784 330.644 582.771 329.154C585.254 327.167 574.825 313.759 570.852 314.256H571.349Z" fill="#F9AB88"/>
<path d="M583.258 328.658C580.775 330.644 566.373 332.134 562.897 336.107C558.924 341.073 550.482 344.052 545.019 345.046V344.549C545.019 342.563 549.489 340.576 550.979 338.59C552.965 336.107 560.414 331.637 564.387 327.664C568.36 323.692 580.278 322.698 580.278 322.698H581.271C583.258 325.678 584.251 328.161 583.258 328.658Z" fill="#F19F7D"/>
<path d="M693.007 159.319C693.007 159.319 712.871 166.768 700.952 200.04C689.034 233.809 651.788 291.416 651.788 291.416L583.753 330.648C583.753 330.648 579.78 312.273 562.399 315.253L626.461 268.572C626.461 268.572 670.659 149.386 693.007 158.822V159.319Z" fill="#ECF4FB"/>
<path d="M521.682 320.214L518.703 318.228V325.677L521.682 327.167V320.214Z" fill="#805539"/>
<path d="M551.475 302.836L548.496 301.346L518.699 318.231L521.679 320.217L551.475 302.836Z" fill="#8D5D3B"/>
<path d="M521.679 320.227V327.18L551.475 309.799V302.846L521.679 320.227Z" fill="#5E4333"/>
<path d="M521.186 325.684L483.444 351.011C483.444 351.011 483.941 348.031 490.396 341.079C496.852 334.623 521.186 320.221 521.186 320.221V319.228L521.682 325.684H521.186Z" fill="#7C7D7D"/>
<path d="M557.431 289.435C557.431 289.435 552.961 304.83 550.975 310.789C548.492 316.748 536.573 322.211 537.566 318.735C538.56 314.762 543.029 302.843 545.512 300.36C547.995 297.877 557.431 289.931 557.431 289.931V289.435Z" fill="#F9AB88"/>
<path d="M544.532 276.523C544.532 276.523 541.055 290.925 529.634 302.347C518.212 313.272 517.218 322.708 523.674 316.748C530.627 310.789 539.566 311.286 546.518 307.313C553.471 303.34 563.899 287.449 562.41 283.476C560.92 279.503 545.028 277.02 545.028 277.02L544.532 276.523Z" fill="#F9AB88"/>
<path d="M580.784 242.261L557.94 297.384C557.94 297.384 546.022 287.452 533.11 295.894L551.981 233.819L580.784 242.757V242.261Z" fill="#ECF4FB"/>
<path d="M494.374 320.226C494.374 320.226 484.939 302.844 472.027 312.777C459.116 322.709 462.095 341.58 462.095 341.58C462.095 341.58 484.939 330.158 494.374 319.729V320.226Z" fill="#F9A139"/>
<path d="M544.026 387.763L462.086 342.075C462.086 342.075 473.508 313.769 479.963 309.796C486.419 306.32 570.842 360.45 570.842 360.45L544.026 387.266V387.763Z" fill="#F9A139"/>
<path d="M490.39 357.968C490.39 357.968 499.826 331.647 523.166 330.654L525.153 332.144C525.153 332.144 498.336 339.593 492.376 359.457L489.893 357.968H490.39Z" fill="#E98138"/>
<path d="M559.43 360.95C550.988 365.916 544.532 377.338 544.532 386.773V387.27L574.328 370.385V369.889C574.328 360.453 567.872 356.48 559.43 361.446V360.95Z" fill="#F6B539"/>
<path d="M635.903 411.593H637.393C648.318 411.593 659.74 414.573 669.175 420.035C689.04 431.954 691.523 452.315 674.638 465.227C665.699 472.179 653.284 475.655 640.372 475.655C628.95 475.655 617.528 472.676 608.093 467.213C588.229 455.294 585.746 434.934 602.63 422.022C611.569 415.069 623.488 411.593 635.903 411.593Z" fill="#93603D"/>
<path d="M610.576 422.019C594.685 431.454 594.685 446.849 610.576 456.781C626.468 466.217 651.795 466.217 667.686 456.781C683.578 447.346 683.578 431.951 667.686 422.019C651.795 412.583 626.468 412.583 610.576 422.019Z" fill="#D0CFCF"/>
<path d="M601.139 405.644C579.785 418.059 579.785 437.924 600.643 449.842C621.5 462.257 655.766 462.257 677.12 449.842C698.474 437.427 698.474 417.563 677.616 405.644C656.262 393.229 621.997 393.229 601.139 405.644Z" fill="#D9DCDE"/>
<path d="M602.133 405.135C581.772 417.054 581.276 436.422 601.637 448.34C621.997 460.259 655.27 460.259 675.631 448.34C695.992 436.422 696.488 417.054 676.127 405.135C655.767 393.217 622.494 393.217 602.133 405.135Z" fill="#FEFEFE"/>
<path d="M602.133 405.135C581.772 417.054 581.276 436.422 601.637 448.34C621.997 460.259 655.27 460.259 675.631 448.34C695.992 436.422 696.488 417.054 676.127 405.135C655.767 393.217 622.494 393.217 602.133 405.135Z" fill="#FEFEFE"/>
<path d="M613.053 412.591C598.651 421.033 598.651 434.441 613.053 442.884C627.455 451.326 650.795 451.326 665.197 442.884C679.598 434.441 679.598 421.033 665.197 412.591C650.795 404.148 627.455 404.148 613.053 412.591Z" fill="#D9DCDE"/>
<path d="M608.588 428.98V428.484V427.987V427.49V426.994V426.497V426.001V425.504V425.007V424.511V424.014V423.518L609.084 423.021L609.581 422.524V422.028L610.077 421.531L610.574 421.035L611.071 420.041L611.567 419.048L612.56 417.558L613.554 416.565L614.05 415.572L614.547 415.075L615.044 414.579L615.54 414.082L616.037 413.586L616.533 413.089L617.03 412.592L617.527 412.096L618.023 411.599L618.52 411.102L619.016 410.606L619.513 410.109L620.01 409.613L620.506 409.116L621.003 408.619L621.499 408.123H621.996H622.493H622.989H623.486H623.982H624.479H624.976H625.472H625.969H626.962H627.955L628.948 408.619L633.915 411.599C632.425 411.102 630.935 410.606 629.445 410.606C628.452 410.606 627.955 411.102 626.962 411.102C625.969 411.599 624.976 411.599 623.982 412.592C622.989 413.089 621.996 413.586 621.499 414.579C619.016 416.565 616.533 419.545 614.547 423.021C613.554 425.007 612.56 427.49 611.567 429.477C611.071 430.47 611.071 431.96 610.574 432.953C610.574 433.946 610.077 435.436 610.077 436.429V436.926L605.111 433.946V433.45V432.953L608.588 428.98Z" fill="#F9A139"/>
<path d="M626.962 408.613C619.513 413.082 613.057 423.511 613.057 432.45V432.946L640.371 417.055V416.558C640.371 407.62 633.915 404.143 626.466 408.613H626.962Z" fill="#F6B539"/>
<path d="M624.485 436.925V436.428V435.931V435.435V434.938V434.442V433.945V433.448V432.952V432.455V431.959V431.462L624.981 430.965L625.478 430.469V429.972L625.975 429.475L626.471 428.979L626.968 427.986L627.464 426.992L628.458 425.503L629.451 424.509L629.948 423.516L630.444 423.02L630.941 422.523L631.437 422.026L631.934 421.53L632.431 421.033L632.927 420.537L633.424 420.04L633.92 419.543L634.417 419.047L634.914 418.55L635.41 418.054L635.907 417.557H636.403L636.9 417.06L637.397 416.564H637.893H638.39H638.886H639.383H639.88H640.376H640.873H641.369H641.866H642.859H643.852L644.846 417.06L649.812 420.04C648.322 419.543 646.832 419.047 645.342 419.047C644.349 419.047 643.852 419.543 642.859 419.543C641.866 420.04 640.873 420.04 639.88 421.033C638.886 421.53 637.893 422.026 637.397 423.02C634.914 425.006 632.431 427.986 630.444 431.462C629.451 433.448 628.458 435.931 627.464 437.918C626.968 438.911 626.968 440.401 626.471 441.394C626.471 442.387 625.975 443.877 625.975 444.87V445.367L621.009 442.387V441.891V441.394L624.485 436.925Z" fill="#F9A139"/>
<path d="M643.344 416.569C635.895 421.038 629.439 431.467 629.439 440.406V440.902L656.752 425.011V424.514C656.752 415.576 650.296 412.099 642.847 416.569H643.344Z" fill="#F6B539"/>
<path d="M637.396 444.862V444.365V443.869V443.372V442.876V442.379V441.882V441.386V440.889V440.392V439.896V439.399L637.893 438.903L638.389 438.406V437.909L638.886 437.413L639.382 436.916L639.879 435.923L640.376 434.93L641.369 433.44L642.362 432.447L642.859 431.454L643.355 430.957L643.852 430.46L644.348 429.964L644.845 429.467L645.342 428.971L645.838 428.474L646.335 427.977L646.832 427.481L647.328 426.984L647.825 426.488L648.321 425.991L648.818 425.494L649.315 424.998L649.811 424.501L650.308 424.005H650.804H651.301H651.798H652.294H652.791H653.287H653.784H654.281H654.777H655.77H656.764L657.757 424.501L662.723 427.481C661.233 426.984 659.743 426.488 658.253 426.488C657.26 426.488 656.764 426.984 655.77 426.984C654.777 427.481 653.784 427.481 652.791 428.474C651.798 428.971 650.804 429.467 650.308 430.46C647.825 432.447 645.342 435.426 643.355 438.903C642.362 440.889 641.369 443.372 640.376 445.359C639.879 446.352 639.879 447.842 639.382 448.835C639.382 449.828 638.886 451.318 638.886 452.311V452.808L633.92 449.828V449.331V448.835L637.396 444.862Z" fill="#F9A139"/>
<path d="M655.77 424.51C648.321 428.979 641.865 439.408 641.865 448.347V448.843L669.179 432.952V432.455C669.179 423.516 662.723 420.04 655.274 424.51H655.77Z" fill="#F6B539"/>
<path d="M517.218 493.53C525.164 493.53 532.613 491.543 538.075 487.074C548.504 479.128 547.014 466.713 534.599 459.264C528.64 455.788 521.687 454.298 514.735 454.298C506.789 454.298 499.34 456.284 493.878 460.754C483.449 468.699 484.939 481.115 497.354 488.564C503.313 492.04 510.266 493.53 517.218 493.53Z" fill="#93603D"/>
<path d="M499.329 465.727C491.383 470.197 490.887 478.142 499.329 482.612C507.275 487.081 520.683 487.081 528.629 482.612C536.574 478.142 537.071 470.197 528.629 465.727C520.683 461.258 507.275 461.258 499.329 465.727Z" fill="#80BAC5"/>
<path d="M546.02 454.798L533.108 479.132L493.876 476.649L481.958 455.294L546.02 454.798Z" fill="#80BAC5"/>
<path d="M490.898 446.355C477.986 453.804 477.986 465.723 490.898 473.669C503.809 481.118 524.667 481.118 537.579 473.669C550.49 466.22 550.49 454.301 537.579 446.852C524.667 439.403 503.809 439.403 490.898 446.852V446.355Z" fill="#D9DCDE"/>
<path d="M494.37 448.35C483.444 454.806 483.444 465.235 494.37 471.194C505.295 477.65 523.173 477.65 534.098 471.194C545.024 464.738 545.024 454.309 534.098 448.35C523.173 441.894 505.295 441.894 494.37 448.35Z" fill="#F7FBFE"/>
<path d="M497.839 452.818C488.9 458.281 488.403 466.723 497.839 472.186C506.778 477.648 521.676 477.648 531.112 472.186C540.05 466.723 540.547 458.281 531.112 452.818C522.173 447.355 507.274 447.355 497.839 452.818Z" fill="#D9DCDE"/>
<path d="M442.72 452.81C450.665 452.81 458.115 450.824 463.577 446.354C474.006 438.409 472.516 425.993 460.101 418.544C454.142 415.068 447.189 413.578 440.237 413.578C432.291 413.578 424.842 415.565 419.379 420.034C408.951 427.98 410.44 440.395 422.855 447.844C428.815 451.32 435.767 452.81 442.72 452.81Z" fill="#93603D"/>
<path d="M424.846 425.008C416.9 429.477 416.403 437.423 424.846 441.892C432.791 446.362 446.199 446.362 454.145 441.892C462.091 437.423 462.587 429.477 454.145 425.008C446.199 420.538 432.791 420.538 424.846 425.008Z" fill="#80BAC5"/>
<path d="M471.021 414.078L458.606 437.915L418.878 435.929L407.456 414.078H471.021Z" fill="#80BAC5"/>
<path d="M415.899 405.136C402.987 412.585 402.987 424.503 415.899 432.449C428.811 439.898 449.668 439.898 462.58 432.449C475.492 425 475.492 413.082 462.58 405.632C449.668 398.183 428.811 398.183 415.899 405.632V405.136Z" fill="#D9DCDE"/>
<path d="M419.386 407.63C408.461 414.086 408.461 424.515 419.386 430.474C430.312 436.93 448.19 436.93 459.115 430.474C470.04 424.018 470.04 413.59 459.115 407.63C448.19 401.175 430.312 401.175 419.386 407.63Z" fill="#F7FBFE"/>
<path d="M422.856 411.598C413.917 417.061 413.42 425.503 422.856 430.966C431.795 436.429 446.693 436.429 456.128 430.966C465.067 425.503 465.564 417.061 456.128 411.598C447.189 406.136 432.291 406.136 422.856 411.598Z" fill="#D9DCDE"/>
<path d="M376.677 413.576C384.623 413.576 392.072 411.589 397.534 407.12C407.963 399.174 406.473 386.759 394.058 379.31C388.099 375.834 381.146 374.344 374.194 374.344C366.248 374.344 358.799 376.33 353.337 380.8C342.908 388.746 344.398 401.161 356.813 408.61C362.772 412.086 369.725 413.576 376.677 413.576Z" fill="#93603D"/>
<path d="M358.789 385.773C350.843 390.243 350.346 398.188 358.789 402.658C366.734 407.127 380.143 407.127 388.088 402.658C396.034 398.188 396.531 390.243 388.088 385.773C380.143 381.304 366.734 381.304 358.789 385.773Z" fill="#80BAC5"/>
<path d="M404.979 374.844L392.068 399.178L352.836 396.695L340.917 374.844H404.979Z" fill="#80BAC5"/>
<path d="M349.857 366.402C336.945 373.851 336.945 385.769 349.857 393.715C362.769 401.164 383.626 401.164 396.538 393.715C409.45 386.266 409.45 374.347 396.538 366.898C383.626 359.449 362.769 359.449 349.857 366.898V366.402Z" fill="#D9DCDE"/>
<path d="M353.329 368.396C342.403 374.852 342.403 385.281 353.329 391.24C364.254 397.696 382.132 397.696 393.057 391.24C403.983 384.784 403.983 374.355 393.057 368.396C382.132 361.94 364.254 361.94 353.329 368.396Z" fill="#F7FBFE"/>
<path d="M356.814 372.864C347.875 378.327 347.378 386.769 356.814 392.232C365.752 397.694 380.651 397.694 390.086 392.232C399.025 386.769 399.522 378.327 390.086 372.864C381.147 367.402 366.249 367.402 356.814 372.864Z" fill="#D9DCDE"/>
<path d="M342.903 314.255C359.291 314.255 375.182 310.778 387.597 303.826C411.931 289.921 411.434 268.07 387.597 254.662C375.679 248.206 360.284 244.73 344.889 244.73C328.501 244.73 312.61 248.206 300.194 255.158C275.861 269.063 276.357 290.914 300.194 304.322C312.113 310.778 327.508 314.255 342.903 314.255Z" fill="#93603D"/>
<path d="M309.128 240.268C286.284 254.173 286.284 276.024 308.632 289.929C330.979 303.337 367.728 303.337 390.075 289.929C412.422 276.52 412.919 254.173 390.572 240.268C368.224 226.86 331.476 226.86 309.128 240.268Z" fill="#D0CFCF"/>
<path d="M295.231 217.425C264.938 234.806 264.441 263.609 294.734 280.991C325.027 298.372 373.694 298.372 404.484 280.991C434.777 263.609 435.273 234.806 404.98 217.425C374.687 200.044 325.524 200.044 295.231 217.425Z" fill="#A9ADAF"/>
<path d="M296.724 216.931C267.424 233.816 266.928 261.626 296.227 278.51C325.527 295.395 372.705 295.395 402.501 278.51C431.801 261.626 432.297 233.816 402.998 216.931C373.698 200.047 326.024 200.047 296.724 216.931Z" fill="#FEFEFE"/>
<path d="M296.724 216.931C267.424 233.816 266.928 261.626 296.227 278.51C325.527 295.395 372.705 295.395 402.501 278.51C431.801 261.626 432.297 233.816 402.998 216.931C373.698 200.047 326.024 200.047 296.724 216.931Z" fill="#E2E3E3"/>
<path d="M312.602 227.361C291.745 239.279 291.745 258.647 312.602 270.566C332.963 282.484 366.236 282.484 387.093 270.566C407.454 258.647 407.951 239.279 387.59 227.361C367.229 215.442 333.957 215.442 313.099 227.361H312.602Z" fill="#A9ADAF"/>
<path d="M379.151 243.251C379.151 243.251 381.137 232.326 380.144 224.38C379.151 216.434 387.097 215.441 376.668 206.999C366.239 199.053 371.702 199.053 364.75 208.985C357.3 218.918 352.831 228.85 350.348 232.326C347.368 235.802 356.804 252.687 379.648 243.251H379.151Z" fill="#7D703B"/>
<path d="M361.279 249.207C361.279 249.207 370.715 232.323 361.279 225.37C351.844 218.914 351.844 211.465 343.898 207.493C336.449 203.52 329.993 203.52 321.551 215.438C312.612 227.357 307.646 232.323 306.156 238.779C304.666 245.235 311.619 257.65 328.503 255.663C345.388 253.677 350.85 257.153 360.782 248.711L361.279 249.207Z" fill="#9A843E"/>
<path d="M402.491 229.345C409.444 236.297 414.906 240.27 407.457 248.712C400.008 257.155 401.001 262.121 389.579 262.617C378.158 263.114 368.226 272.053 364.253 262.617C360.28 252.685 352.334 256.658 358.79 247.222C365.246 237.787 380.144 231.828 386.6 231.828C393.056 231.828 401.995 228.848 401.995 228.848L402.491 229.345Z" fill="#96803E"/>
<path d="M391.568 267.579C391.568 267.579 391.568 257.647 378.657 256.157C365.745 254.667 361.772 249.701 340.915 252.681C320.057 255.66 315.588 249.701 306.152 254.171C296.717 258.64 287.281 259.137 297.213 265.096C307.145 271.055 322.044 281.981 346.377 279.497C371.208 277.014 399.514 283.967 391.568 267.579Z" fill="#7D703B"/>
<path d="M349.864 256.163L330.496 237.789C330.496 237.789 321.557 259.143 349.864 256.163Z" fill="#EF4942"/>
<path d="M388.585 221.892L370.211 241.26C370.211 241.26 391.565 250.695 388.585 221.892Z" fill="#EF4942"/>
<path d="M394.056 246.23L375.681 265.598C375.681 265.598 397.035 275.033 394.056 246.23Z" fill="#EF4942"/>
<path d="M313.602 227.848L295.228 247.216C295.228 247.216 316.582 256.651 313.602 227.848Z" fill="#EF4942"/>
<path d="M371.211 248.209C371.211 249.699 373.197 251.189 375.183 251.189C377.17 251.189 379.156 249.699 379.156 248.209C379.156 246.72 377.17 245.23 375.183 245.23C372.7 245.23 371.211 246.72 371.211 248.209Z" fill="#3D3D3D"/>
<path d="M304.168 253.68C304.168 255.17 306.155 256.66 308.141 256.66C310.127 256.66 312.114 255.17 312.114 253.68C312.114 252.19 310.127 250.7 308.141 250.7C306.155 250.7 304.168 252.19 304.168 253.68Z" fill="#3D3D3D"/>
<path d="M333.962 265.091C333.962 266.581 335.948 268.071 337.934 268.071C340.417 268.071 341.907 266.581 341.907 265.091C341.907 263.601 339.921 262.112 337.934 262.112C335.948 262.112 333.962 263.601 333.962 265.091Z" fill="#3D3D3D"/>
<path d="M341.417 226.357C341.417 227.847 343.403 229.337 345.39 229.337C347.873 229.337 349.363 227.847 349.363 226.357C349.363 224.867 347.376 223.377 345.39 223.377C343.403 223.377 341.417 224.867 341.417 226.357Z" fill="#3D3D3D"/>
<path d="M543.569 802.757C538.942 805.496 539.002 812.212 543.677 814.868L763.063 939.498C765.243 940.736 767.918 940.714 770.077 939.441L988.601 810.568C993.232 807.836 993.183 801.12 988.513 798.457L769.126 673.36C766.942 672.115 764.257 672.136 762.093 673.417L543.569 802.757Z" fill="#FFD3BE"/>
<path d="M382.91 878.729C378.249 881.424 378.248 888.152 382.908 890.848L568.07 997.974C570.236 999.228 572.907 999.229 575.074 997.978L760.75 890.822C765.407 888.134 765.421 881.417 760.775 878.711L576.075 771.123C573.904 769.858 571.222 769.854 569.048 771.111L382.91 878.729Z" fill="#FFD3BE"/>
<path d="M580.85 541.231L584.327 802.943L767.077 906.733L764.098 645.519L580.85 541.231Z" fill="#E2E3E4"/>
<path d="M596.254 624.171L598.24 788.051L746.726 872.474L744.739 708.594L596.254 624.171Z" fill="#CECDCC"/>
<path d="M745.725 812.384L597.737 727.961L596.247 624.171L744.732 708.594L745.725 812.384Z" fill="#BCBDBD"/>
<path d="M764.104 645.524L767.083 906.739L949.338 799.472L946.358 537.761L764.104 645.524Z" fill="#FEFEFE"/>
<path d="M580.85 541.236L764.098 645.524L946.352 537.76L763.105 433.97L580.85 541.236Z" fill="#F7F7F8"/>
<path d="M724.871 472.695C705.504 484.117 705.504 501.995 724.871 513.417C744.239 524.342 775.525 524.342 794.893 512.921C814.261 501.499 814.261 483.621 794.893 472.199C775.525 461.274 744.239 461.274 724.871 472.695Z" fill="#B0AFB0"/>
<path d="M737.28 479.651C724.865 487.101 724.865 499.019 737.28 505.972C750.192 513.421 770.552 512.924 782.967 505.475C795.383 498.026 795.383 486.107 782.967 479.155C770.056 471.706 749.695 472.202 737.28 479.651Z" fill="#E2E3E4"/>
<path d="M812.281 515.4C792.913 526.822 792.913 544.7 812.281 556.122C831.649 567.047 862.935 567.047 882.302 555.625C901.67 544.203 901.67 526.325 882.302 514.904C862.935 503.978 831.649 503.978 812.281 515.4Z" fill="#B0AFB0"/>
<path d="M824.189 522.356C811.774 529.805 811.774 541.724 824.189 548.676C837.101 556.125 857.462 555.629 869.877 548.18C882.292 540.73 882.292 528.812 869.877 521.859C856.965 514.41 836.604 514.907 824.189 522.356Z" fill="#E2E3E4"/>
<path d="M643.432 523.856C624.065 535.278 624.065 553.156 643.432 564.578C662.8 575.503 694.086 575.503 713.454 564.081C732.821 552.659 732.821 534.782 713.454 523.36C694.086 512.434 662.8 512.434 643.432 523.856Z" fill="#B0AFB0"/>
<path d="M655.841 530.797C643.426 538.246 643.426 550.165 655.841 557.117C668.753 564.566 689.114 564.07 701.529 556.621C713.944 549.171 713.944 537.253 701.529 530.3C688.617 522.851 668.256 523.348 655.841 530.797Z" fill="#E2E3E4"/>
<path d="M730.827 566.561C711.46 577.983 711.46 595.861 730.827 607.283C750.195 618.208 781.481 618.208 800.849 606.786C820.216 595.364 820.216 577.486 800.849 566.064C781.481 555.139 750.195 555.139 730.827 566.561Z" fill="#B0AFB0"/>
<path d="M742.751 573.517C730.335 580.966 730.335 592.884 742.751 599.837C755.662 607.286 776.023 606.789 788.438 599.34C800.854 591.891 800.854 579.973 788.438 573.02C775.527 565.571 755.166 566.068 742.751 573.517Z" fill="#E2E3E4"/>
<path d="M675.204 616.223C671.231 613.74 667.755 615.726 667.755 620.692C667.755 625.658 671.231 631.121 675.204 633.604C679.673 636.087 682.653 634.101 682.653 629.135C682.653 624.168 679.177 618.706 675.204 616.223Z" fill="#B2B3B3"/>
<path d="M652.367 603.311C648.394 600.828 644.918 602.815 644.918 607.781C644.918 612.747 648.394 618.21 652.367 620.693C656.836 623.176 659.816 621.189 659.816 616.223C659.816 611.257 656.34 605.794 652.367 603.311Z" fill="#B2B3B3"/>
<path d="M629.029 589.9C625.056 587.417 621.58 589.403 621.58 594.369C621.58 599.335 625.056 604.798 629.029 607.281C633.499 609.764 636.478 607.778 636.478 602.812C636.478 597.845 633.002 592.383 629.029 589.9Z" fill="#B2B3B3"/>
<path d="M606.677 576.988C602.704 574.505 599.228 576.492 599.228 581.458C599.228 586.424 602.704 591.887 606.677 594.37C611.146 596.853 614.126 594.866 614.126 589.9C614.126 584.934 610.65 579.471 606.677 576.988Z" fill="#B2B3B3"/>
<path d="M616.611 607.774V613.733L606.679 619.196V613.733L616.611 607.774Z" fill="#8B8B8B"/>
<path d="M599.229 617.706V623.665L592.773 620.189V614.229L599.229 617.706Z" fill="#656565"/>
<path d="M742.255 678.787V684.746L732.323 690.705V684.746L742.255 678.787Z" fill="#8B8B8B"/>
<path d="M718.417 685.253V691.212L599.232 623.674V617.715L718.417 685.253Z" fill="#656565"/>
<path d="M724.873 689.215V694.678L718.417 691.202V685.242L724.873 689.215Z" fill="#656565"/>
<path d="M732.313 684.757V690.716L724.864 694.689V689.227L732.313 684.757Z" fill="#8B8B8B"/>
<path d="M742.255 678.791L732.323 684.75L724.874 689.22L718.418 685.247L599.232 617.708L592.777 614.232L600.226 609.763L610.158 603.803L616.614 607.776L606.681 613.735L725.867 680.777L735.799 675.315L742.255 678.791Z" fill="#9A9B9A"/>
<path d="M690.604 622.17L691.101 642.034L741.755 670.838L741.258 650.973L690.604 622.17Z" fill="#656565"/>
<path d="M720.403 548.679C700.538 561.094 700.538 580.958 720.403 593.373C740.267 605.788 772.05 605.788 791.914 593.373C811.778 580.958 811.778 561.094 791.914 548.679C772.05 536.264 740.267 536.264 720.403 548.679Z" fill="#4A4A4A"/>
<path d="M717.912 539.738C696.558 552.153 696.558 572.017 717.912 584.432C739.266 596.847 773.532 596.847 794.886 584.432C816.24 572.017 816.24 552.153 795.383 539.738C774.029 527.323 739.763 527.323 718.409 539.738H717.912Z" fill="#575757"/>
<path d="M721.401 541.721C702.033 553.143 702.033 571.02 721.401 582.442C740.769 593.864 772.055 593.864 791.423 582.442C810.79 571.02 810.79 553.143 791.423 541.721C772.055 530.299 740.769 530.299 721.401 541.721Z" fill="#616262"/>
<path d="M790.923 581.96C771.555 593.382 740.269 592.885 720.901 581.96C713.949 577.987 709.976 573.518 707.99 568.055C707.493 560.606 711.963 553.157 721.895 547.198C740.766 536.272 771.555 536.272 789.93 547.198C799.862 552.66 804.331 560.606 803.835 568.055C801.848 573.021 797.379 577.987 790.426 581.96H790.923Z" fill="#7C7D7D"/>
<path d="M728.849 552.163C713.454 561.102 713.454 575.007 728.849 583.946C743.747 592.885 768.578 592.885 783.476 583.946C798.871 575.007 798.871 561.102 783.476 552.163C768.578 543.225 743.747 543.225 728.353 552.163H728.849Z" fill="#8B8B8B"/>
<path d="M728.344 594.374V588.415C728.344 588.415 720.894 586.428 713.445 580.966V586.925C713.445 586.925 723.874 593.878 728.344 593.878V594.374Z" fill="#3C3C3C"/>
<path d="M726.358 597.344V591.385C726.358 591.385 719.406 588.406 710.467 583.936V590.392C710.467 590.392 721.889 597.344 726.358 597.344Z" fill="#3C3C3C"/>
<path d="M680.183 622.184L723.388 595.367C723.388 595.367 722.395 587.421 712.463 587.421L672.734 619.204L680.183 622.184Z" fill="#3C3C3C"/>
<path d="M728.344 588.907L726.357 591.39V597.349L728.344 594.369V588.907Z" fill="#313131"/>
<path d="M713.445 581.451L710.466 584.43L726.357 591.383L728.344 588.9L713.445 581.451Z" fill="#313131"/>
<path d="M672.734 619.2V622.18L680.183 625.159V622.18L672.734 619.2Z" fill="#313131"/>
<path d="M680.183 622.179L723.388 595.362L680.183 625.159V622.179Z" fill="#313131"/>
<path d="M737.78 555.638C736.29 556.631 735.793 557.625 735.793 558.121C735.793 560.604 742.746 564.08 743.739 568.55C744.732 573.019 750.691 580.468 756.651 580.965C762.113 581.462 773.535 583.448 779.495 579.972L780.488 579.475C786.447 575.006 781.978 570.536 773.535 564.08C771.052 562.094 769.562 556.135 762.113 557.128C754.664 557.625 759.134 558.121 750.195 555.638C744.236 553.652 740.263 554.645 737.78 555.638Z" fill="#FEFEFE"/>
<path d="M753.177 565.559C749.701 567.545 749.701 571.021 753.177 573.008C756.653 574.994 762.116 574.994 765.592 573.008C769.068 571.021 769.068 567.545 765.592 565.559C762.116 563.572 756.653 563.572 753.177 565.559Z" fill="#F9A139"/>
<path d="M768.078 569.036C768.078 569.036 768.078 563.077 759.139 562.084C759.139 562.084 751.69 562.084 750.2 569.036C750.2 569.036 763.608 570.526 768.078 569.036Z" fill="#F9A139"/>
<path d="M710.965 428.496C704.013 432.468 704.013 438.924 710.965 443.394L713.945 445.38L717.917 443.394L715.931 442.401C710.468 439.421 710.468 433.958 715.931 430.979L722.387 427.502C727.85 424.523 736.789 424.523 742.251 427.502L744.238 428.496L748.21 426.509L745.231 424.523C738.278 420.55 726.856 420.55 719.904 424.523L711.462 429.489L710.965 428.496Z" fill="#D7D5D5"/>
<path d="M747.226 425.529L743.253 427.515L741.267 426.522L739.777 426.025H739.28L738.287 425.529H737.79H737.294H736.797H736.3H735.804H734.314H733.817H732.824H732.328H731.334H730.838H730.341H729.845H729.348H728.851H728.355H727.858H727.362H726.865H726.368H725.872H724.879H724.382L722.892 426.025C722.395 426.522 721.402 426.522 720.906 427.018L714.45 430.495C711.47 431.984 710.477 433.971 710.477 436.454V439.434C710.477 437.447 711.967 435.461 714.45 433.474L720.906 429.998C721.402 429.501 722.395 429.501 722.892 429.005L724.382 428.508H724.879H725.872H726.368H726.865H727.362H727.858H728.355H728.851H729.348H730.341H730.838H731.831H732.328H733.817H734.314H734.811H735.307H735.804H736.3L737.294 429.005H737.79L739.28 429.501L741.267 430.495L745.239 428.508V425.529H747.226Z" fill="#FEFEFE"/>
<path d="M713.444 444.894L710.465 442.907H709.968L709.472 442.411L708.975 441.914L708.478 441.417L707.485 440.424L706.989 439.928L706.492 439.431V438.934L705.995 438.438V437.941L705.499 437.445V436.948V436.451V435.955V438.934V439.431V439.928V440.424L705.995 440.921V441.417L706.492 441.914V442.411L706.989 442.907L707.485 443.404L707.982 444.397H708.478L708.975 444.894L709.472 445.39H709.968L710.465 445.887L713.444 447.873L717.417 445.39V442.907L713.444 444.894Z" fill="#FEFEFE"/>
<path d="M802.841 441.408V441.905V442.401V442.898V443.394V443.891V444.388V444.884V445.381L802.345 445.878L801.848 446.374L801.351 446.871L800.855 447.367L800.358 448.361L799.862 448.857L799.365 449.85L798.868 450.347L797.875 451.837L797.379 452.333L796.385 453.327L795.889 453.823L795.392 454.32L794.896 454.816L794.399 455.313L793.902 455.81L793.406 456.306L792.909 456.803L791.916 457.299L790.923 457.796C789.93 458.293 788.936 458.789 787.943 459.286L786.95 459.782C785.957 460.279 784.963 460.776 783.97 460.776H783.474C782.48 461.272 781.487 461.769 780.494 461.769C779.501 461.769 779.004 462.266 778.011 462.266L776.025 462.762C775.031 462.762 774.535 463.259 773.542 463.259L771.555 463.755H770.562C769.569 463.755 768.575 464.252 767.582 464.252H766.589C765.596 464.252 764.106 464.252 763.113 464.749H762.616C761.126 464.749 760.133 464.749 758.643 464.749H758.147C757.153 464.749 756.16 464.749 755.167 464.749C754.174 464.749 753.677 464.749 752.684 464.749C752.187 464.749 751.194 464.749 750.698 464.749C750.201 464.749 749.208 464.749 748.711 464.749C747.718 464.749 746.725 464.252 745.732 464.252C744.738 464.252 743.248 463.755 742.255 463.259H741.759C740.765 462.762 739.276 462.762 738.282 462.266L737.289 461.769C736.296 461.272 735.303 461.272 734.31 460.776L733.316 460.279C732.323 459.782 731.827 459.782 730.833 459.286L729.84 458.789C728.847 458.293 727.854 457.796 726.364 457.299C717.425 452.333 712.955 445.381 712.955 438.925C712.955 455.313 712.955 471.204 712.955 487.592C712.955 494.048 717.425 501.001 726.364 505.967C727.357 506.463 728.35 506.96 729.84 507.457L730.833 507.953C731.33 508.45 732.323 508.45 732.82 508.946H733.316L734.31 509.443C735.303 509.94 736.296 509.94 736.793 510.436L737.786 510.933H738.282C739.276 511.43 740.269 511.43 741.262 511.43H741.759L743.248 511.926C744.242 511.926 744.738 512.423 745.732 512.423H746.228L748.215 512.919H749.208C750.201 512.919 750.698 512.919 751.691 513.416H752.684H753.677C754.67 513.416 755.167 513.416 755.664 513.416H756.657H758.147H758.643C759.637 513.416 760.133 513.416 761.126 513.416H762.12H762.616C763.609 513.416 764.603 513.416 765.596 513.416H766.092H767.086C768.079 513.416 769.072 512.919 770.065 512.919H770.562H771.058L772.548 512.423C773.542 512.423 774.038 511.926 775.031 511.926L777.018 511.43C778.011 511.43 778.508 510.933 779.501 510.933H779.997C780.991 510.436 781.984 510.436 782.977 509.94H783.474C784.467 509.443 785.46 508.946 786.453 508.946L787.446 508.45C788.44 507.953 789.433 507.457 790.426 506.96L790.923 506.463L791.419 505.967L792.413 505.47L792.909 504.974L793.902 504.477L794.399 503.98L794.896 503.484L795.392 502.987L795.889 502.491H796.385L797.379 501.497L797.875 501.001L798.868 499.511L799.365 499.014L799.862 498.021L800.358 497.525L800.855 496.531V496.035L801.351 495.538L801.848 495.042L802.345 494.545V494.048V493.552V493.055V492.558V492.062V491.565V491.069V490.572V490.075V489.579V489.082C802.345 472.694 802.345 456.803 802.345 440.415V441.408H802.841Z" fill="#E2E3E4"/>
<path d="M789.927 422.051C807.308 431.984 807.308 448.372 789.927 458.8C772.546 468.732 744.239 468.732 726.858 458.8C709.477 448.868 709.477 432.48 726.858 422.051C744.239 412.119 772.546 412.119 789.927 422.051Z" fill="#F7F7F8"/>
<path d="M797.377 460.777V461.274H797.873L798.37 461.771L798.867 462.267L799.363 462.764L799.86 463.26V463.757H800.356V464.254V464.75V465.247V465.743V469.716V469.22V468.723V468.226L799.86 467.73V467.233H799.363V466.737L798.867 466.24L798.37 465.743H797.873V465.247H797.377L796.88 464.75V460.777H797.377Z" fill="#939292"/>
<path d="M772.539 477.17L774.029 477.667H774.526L775.519 478.163H776.016H777.009H777.506H778.499H778.995H780.485H780.982H781.975H782.472H783.465H783.961H784.458H784.955H785.451H785.948H786.941H787.438H788.431H788.927L790.417 477.667L790.914 477.17H791.41L792.404 476.673L801.343 471.707C804.322 470.217 805.812 467.734 805.812 465.748V469.721C805.812 472.204 804.322 474.19 801.343 476.177L792.404 481.143L791.41 481.639H790.914L790.417 482.136L788.927 482.633H788.431H787.438H786.941H786.444H785.451H784.955H784.458H783.465H782.968H782.472H781.478H780.982H780.485H779.492H778.995H778.499H777.506H777.009H775.519H775.022H774.029H773.533H772.539H772.043L771.05 482.136H770.553L769.063 481.639L767.077 480.646V476.673L769.063 477.667L772.539 477.17Z" fill="#FEFEFE"/>
<path d="M770.063 475.673L772.05 476.667C778.009 480.143 787.444 480.143 793.404 476.667L802.343 471.701C808.302 468.224 808.302 462.762 802.343 459.285L800.356 458.292L796.383 460.775L796.88 461.272C801.349 463.755 801.349 467.728 796.88 470.211L790.424 474.184C785.955 476.667 779.002 476.667 774.533 474.184L774.036 473.687L770.063 476.17V475.673Z" fill="#D7D5D5"/>
<path d="M771.048 432.469C771.048 429.986 770.055 428 768.565 427.503L766.082 426.014C767.571 427.007 768.565 428.497 768.565 430.98V431.476L771.048 432.966V432.469Z" fill="#D7D5D5"/>
<path d="M765.594 422.051H766.09H766.587H767.083H767.58H768.077H768.573H769.07H769.566L770.063 422.548L769.566 422.051L767.58 421.058H767.083H766.587H766.09H765.594H765.097H764.6H764.104H763.607H763.11H762.614L761.621 421.555L752.682 426.521L751.689 427.017H751.192L750.695 427.514L750.199 428.011L749.702 428.507L749.205 429.004L748.709 429.5L748.212 429.997V430.494V430.99L747.716 431.487V431.983L747.219 432.48V432.977L746.722 433.97L746.226 434.466V434.963V435.46V435.956L745.729 436.453L745.233 437.446V437.943V438.439V438.936V439.433V439.929V440.426V440.922V441.419V442.412V443.902V444.895C745.233 445.392 745.233 446.385 745.233 446.882L747.716 448.371C747.716 447.875 747.716 447.378 747.716 446.385V445.392V443.902V443.405V442.412V441.916V441.419V440.922V440.426L748.212 439.433V438.936L748.709 437.943L749.205 436.949V436.453L749.702 435.46L750.199 434.466V433.97L750.695 433.473L751.192 432.977L751.689 432.48L752.185 431.983L752.682 431.487L753.178 430.99L753.675 430.494L754.172 429.997L754.668 429.5L755.165 429.004L755.661 428.507H756.158L757.151 428.011L766.09 423.045L767.083 422.548H767.58L765.594 422.051Z" fill="#D7D5D5"/>
<path d="M764.101 423.033C769.564 420.053 774.033 422.536 774.033 428.496V429.489C774.033 429.985 774.033 430.979 774.033 431.475L771.55 432.965V432.468C771.55 427.502 768.074 425.516 763.604 427.999L756.652 431.972C752.182 434.455 748.706 440.414 748.706 445.38V445.877L746.223 447.367C746.223 446.87 746.223 446.373 746.223 445.38V444.387C746.223 438.428 750.693 430.482 756.155 427.502L765.094 422.536L764.101 423.033Z" fill="#E2E3E4"/>
<path d="M527.718 882.4C528.711 882.4 567.447 880.91 559.004 894.815C553.542 903.754 545.596 905.244 539.637 905.74C533.677 905.74 523.249 902.761 520.269 904.747C517.786 906.237 504.378 915.176 496.929 906.734C495.439 905.244 494.446 899.781 495.439 896.802C496.432 893.822 523.249 882.4 527.718 883.393V882.4Z" fill="#696292"/>
<path d="M559 894.812C553.538 903.751 545.592 905.241 539.633 905.737C533.674 905.737 523.245 902.757 520.265 904.744C517.782 906.234 504.374 915.173 496.925 906.73C495.932 905.737 495.435 903.751 494.938 901.764C500.401 909.213 513.313 906.73 516.789 904.247C520.762 901.268 526.721 900.274 531.687 900.771C536.653 901.764 548.075 900.274 553.538 895.308C557.014 892.329 556.517 888.853 556.021 886.37C559.497 888.356 560.987 890.839 558.504 894.812H559Z" fill="#534F7A"/>
<path d="M583.831 907.226C611.641 903.253 641.438 907.723 630.512 922.124C623.56 931.56 613.628 933.05 606.179 933.05C598.729 933.05 584.824 929.573 581.845 931.56C578.369 933.05 561.981 942.485 552.048 933.05C550.062 931.063 547.082 923.117 548.076 919.641C549.069 916.165 578.369 907.723 583.831 907.226Z" fill="#696292"/>
<path d="M499.405 588.403C499.405 588.403 475.568 629.621 497.915 686.234C497.915 686.234 503.378 724.473 501.391 745.331C499.405 766.685 491.956 754.766 493.942 826.774C495.432 883.387 492.949 875.441 493.942 895.802C494.439 902.258 520.759 907.721 524.732 891.333C535.16 849.121 552.045 758.739 546.582 707.589C541.12 656.438 546.582 610.75 546.582 610.75C546.582 610.75 515.793 602.308 498.908 587.907L499.405 588.403Z" fill="#D3DBE0"/>
<path d="M533.681 619.687C533.681 619.687 509.348 656.436 543.117 704.607C543.117 704.607 560.001 755.757 556.525 773.635C553.049 792.506 544.11 792.01 543.117 852.595C542.62 890.338 543.614 897.787 546.593 921.624C547.586 930.563 581.355 931.059 583.342 918.644C589.798 875.936 605.689 784.064 602.709 732.913C600.226 681.266 594.267 615.714 594.267 615.714C594.267 615.714 556.029 631.606 533.681 619.687Z" fill="#F7FBFE"/>
<path d="M613.13 501.995C613.13 501.995 622.069 475.675 578.367 454.818C535.163 433.464 507.353 431.477 503.876 456.308C500.4 481.138 508.346 516.397 508.842 527.819C509.339 536.758 514.305 562.085 500.4 586.915C486.992 611.745 476.066 632.603 547.081 644.521C559.496 646.508 600.218 645.018 593.266 616.215C581.844 567.547 604.688 531.295 613.13 501.995Z" fill="#E8EBEF"/>
<path d="M668.252 617.713C668.252 617.713 687.123 631.121 698.049 624.169C709.471 617.216 709.967 614.237 703.511 612.747C697.056 611.754 680.668 607.781 682.654 606.291C685.137 604.304 691.096 603.311 689.606 601.325C688.117 599.338 669.742 602.815 669.742 602.815L659.81 613.243L667.756 617.713H668.252Z" fill="#F9AB88"/>
<path d="M612.632 491.08C612.632 491.08 607.169 469.726 586.808 477.176C564.958 485.121 585.815 527.333 585.815 527.333C585.815 527.333 600.713 565.075 609.156 575.007C620.081 588.415 663.782 618.212 663.782 618.212C663.782 618.212 675.701 610.266 676.198 599.837C676.198 599.837 639.449 570.537 632 556.632C624.054 541.734 614.618 494.06 612.632 491.08Z" fill="#F7FBFE"/>
<path d="M631.012 922.126C624.06 931.561 614.128 933.051 606.679 933.051C599.229 933.051 585.324 929.575 582.345 931.561C578.869 933.051 562.481 942.486 552.548 933.051C551.555 932.058 549.569 929.078 549.072 926.595C556.025 934.541 573.406 933.548 577.875 931.064C582.841 928.085 590.787 926.595 597.243 927.588C603.699 928.581 618.1 927.588 625.053 922.126C629.026 918.649 630.516 912.69 629.522 910.207C633.992 912.193 634.489 917.656 631.509 921.629L631.012 922.126Z" fill="#534F7A"/>
<path d="M586.822 456.307C589.801 458.79 597.747 468.226 589.305 472.198C580.862 476.171 558.515 482.131 547.093 492.063C528.222 508.947 527.726 467.729 527.726 466.239C527.726 461.273 531.202 439.919 556.032 441.409C556.032 441.409 577.883 448.361 586.822 455.81V456.307Z" fill="#F95265"/>
<path d="M592.282 605.294C592.282 605.294 628.037 686.241 612.146 819.828C612.146 819.828 552.553 843.169 491.471 773.147C491.471 773.147 500.409 725.97 492.464 681.275C484.518 636.581 479.552 629.132 494.947 595.362C494.947 595.362 532.192 623.669 592.282 605.791V605.294Z" fill="#F95265"/>
<path d="M582.347 432.467C582.347 432.467 574.401 448.855 581.851 461.271C585.823 467.726 536.659 472.692 546.095 456.801C556.027 439.916 553.047 429.488 542.619 417.073L582.347 432.467Z" fill="#F9AB88"/>
<path d="M578.865 444.397C578.865 444.397 567.444 440.424 560.988 435.955L559.994 436.451L555.525 436.948L553.539 437.445C553.539 437.445 554.035 456.316 579.362 456.812C579.362 456.812 577.872 451.846 578.369 444.397H578.865Z" fill="#F7A280"/>
<path d="M590.296 361.957C590.296 361.957 596.752 374.372 604.697 395.229C612.146 413.604 611.153 429.992 602.214 440.421C597.745 445.883 552.057 449.856 538.649 405.162C530.207 376.855 554.044 343.086 589.799 361.957H590.296Z" fill="#F9AB88"/>
<path d="M606.674 348.554C611.143 353.023 607.667 375.867 597.735 384.309C592.272 388.779 590.782 403.677 590.782 408.146C590.782 412.119 588.299 414.602 577.374 405.663C573.401 402.187 565.456 405.167 563.966 414.105C562.476 422.548 575.884 437.943 570.918 440.426C566.449 442.909 549.564 448.371 537.646 429.004C525.727 409.636 512.815 364.942 548.074 372.887C580.354 380.336 599.225 340.111 606.674 347.56V348.554Z" fill="#784B37"/>
<path d="M590.29 593.87C590.29 593.87 560.493 621.184 498.418 586.421L493.948 597.347C493.948 597.347 513.316 627.64 594.759 610.258L590.29 594.367V593.87Z" fill="#BD3444"/>
<path d="M525.737 599.333C525.737 599.333 500.41 609.265 501.899 645.021C501.899 645.021 533.186 630.619 525.737 599.333Z" fill="#BD3444"/>
<path d="M529.203 608.774C529.203 608.774 519.271 632.611 547.081 656.945C547.081 656.945 558.006 625.658 529.203 608.774Z" fill="#BD3444"/>
<path d="M525.235 408.644C525.235 408.644 573.405 404.671 599.229 357.99L589.793 339.119C589.793 339.119 559.997 383.814 516.296 391.759L525.235 408.644Z" fill="#EEEEEF"/>
<path d="M564.962 310.304C557.513 315.27 556.52 321.726 552.05 323.713C541.622 328.182 535.662 313.781 520.764 325.699C504.376 338.611 513.315 345.067 506.859 353.012C504.376 355.992 499.41 354.999 495.934 356.985C485.009 364.434 482.029 379.333 489.478 390.258C496.431 401.183 511.329 403.666 521.758 395.721C523.247 394.727 524.241 393.734 525.234 392.741C531.69 391.251 543.608 387.775 553.54 379.333C567.942 367.414 589.296 353.012 586.813 349.536C597.738 342.087 600.718 327.189 593.269 316.264C585.82 305.338 576.384 301.862 564.466 310.304H564.962Z" fill="#F3F4F4"/>
<path d="M522.258 395.733C523.748 394.74 524.741 393.746 525.734 392.753C532.19 391.263 544.108 387.787 554.041 379.345C568.442 367.426 589.796 353.025 587.313 349.548C598.238 342.099 601.218 327.201 593.769 316.276C592.776 315.283 592.279 314.289 591.286 313.296C591.783 324.222 584.334 332.664 572.415 340.61C554.041 352.528 548.578 351.535 536.163 353.521C523.748 355.508 513.816 375.869 501.4 381.331C494.448 384.311 489.482 379.841 485.509 374.875C485.012 380.338 486.006 385.801 489.482 390.27C496.434 401.195 511.333 403.678 521.761 395.733H522.258Z" fill="#E8E9E6"/>
</svg>
