<svg width="660" height="1000" viewBox="0 0 660 1000" fill="none" xmlns="http://www.w3.org/2000/svg">
<path d="M47.1984 790.081C30.5452 799.674 30.4923 823.687 47.1031 833.352L320.957 992.707C328.708 997.217 338.281 997.231 346.044 992.742L621.91 833.248C638.548 823.629 638.562 799.616 621.936 789.977L348.082 631.213C340.349 626.73 330.81 626.716 323.065 631.178L47.1984 790.081Z" fill="#FFD3BE"/>
<path d="M425.57 372.796C425.57 372.796 449.988 385.354 451.383 419.539C451.383 419.539 422.779 410.469 425.57 372.796Z" fill="#BD3444"/>
<path d="M417.906 370.003C417.906 370.003 444.417 363.026 468.137 388.142C468.137 388.142 440.928 399.304 417.906 370.003Z" fill="#BD3444"/>
<path d="M160.477 306.523C160.477 306.523 110.247 305.825 106.758 276.524C106.061 273.036 108.851 271.64 120.711 275.826C128.385 278.617 132.571 282.803 137.455 279.314C143.036 275.129 129.083 261.873 133.967 259.78C138.152 256.99 166.058 277.221 166.058 277.221L174.43 281.407V308.616L161.175 307.22L160.477 306.523Z" fill="#F9AB88"/>
<path d="M339.064 168.387C339.064 168.387 323.715 146.062 306.972 165.596C289.531 184.433 259.532 274.429 249.764 280.708C244.881 284.197 168.139 276.522 168.139 276.522C168.139 276.522 178.604 288.382 162.558 310.01C162.558 310.01 260.927 348.38 278.368 328.149C309.065 293.964 350.924 204.664 339.064 168.387Z" fill="#BAC0C5"/>
<path d="M147.909 265.355C147.909 265.355 123.492 252.797 129.073 259.774C134.654 266.75 144.421 279.308 150.7 279.308C156.979 279.308 148.607 265.355 148.607 265.355H147.909Z" fill="#F9AB88"/>
<path d="M401.847 164.907C401.847 164.907 410.219 169.79 419.289 204.673C428.358 238.858 392.778 204.673 392.778 204.673L402.545 164.907H401.847Z" fill="#F95265"/>
<path d="M339.059 781.629C339.059 781.629 347.431 803.953 332.082 808.837C316.037 814.418 316.734 803.953 286.735 824.883C256.039 845.812 231.621 833.952 227.435 829.069C224.644 825.58 226.04 801.86 292.316 774.652L339.757 780.931L339.059 781.629Z" fill="#696292"/>
<path d="M332.101 808.825C316.055 814.406 316.753 803.942 286.754 824.871C256.057 845.801 231.639 833.941 227.453 829.057C226.756 828.359 226.756 827.662 226.756 826.266C252.569 838.127 267.917 825.569 280.475 817.895C293.032 809.523 303.497 806.732 322.334 803.942C341.17 801.151 335.589 786.5 335.589 786.5C336.984 785.803 338.38 785.105 340.473 785.105C341.868 791.384 343.263 804.639 332.101 808.825Z" fill="#534F7A"/>
<path d="M304.874 334.428C304.874 334.428 276.968 499.073 278.364 556.978C279.759 614.883 270.69 724.415 279.759 778.134C282.55 795.575 349.524 800.459 353.012 781.622C362.78 728.6 353.71 605.116 353.71 605.116L384.407 381.171C384.407 381.171 339.059 377.682 304.874 333.73V334.428Z" fill="#D3DBE0"/>
<path d="M428.373 811.631C428.373 811.631 443.023 830.468 429.07 840.235C415.117 850.002 413.024 839.537 390.002 868.839C366.979 897.442 339.771 893.256 334.19 889.768C330.702 886.977 325.121 863.955 380.932 819.305L428.373 812.329V811.631Z" fill="#696292"/>
<path d="M429.075 840.217C415.122 849.984 413.029 839.519 390.006 868.821C366.984 897.424 339.775 893.238 334.194 889.75C333.496 889.052 332.799 888.355 332.799 886.959C360.705 890.448 372.565 874.402 382.332 863.239C392.099 851.379 401.169 845.798 418.61 838.124C436.051 830.45 426.284 817.892 426.284 817.892C426.982 816.497 429.075 815.799 431.168 815.102C434.656 820.683 439.54 832.543 429.773 840.217H429.075Z" fill="#534F7A"/>
<path d="M330.694 356.765C330.694 356.765 348.135 538.852 349.531 596.757C350.926 654.662 350.926 766.984 359.995 821.4C362.786 838.842 429.76 843.725 433.248 824.889C443.015 771.867 433.946 648.383 433.946 648.383L427.667 420.251C427.667 420.251 365.577 400.02 331.392 356.765H330.694Z" fill="#F7FBFE"/>
<path d="M431.861 206.063C429.071 203.97 330.702 149.553 318.144 158.623C305.586 167.692 271.401 214.435 285.354 280.014C305.586 378.383 290.238 425.823 290.238 425.823C290.238 425.823 333.492 464.194 428.373 443.962C428.373 443.962 425.583 444.66 425.583 392.336C425.583 293.269 471.628 236.062 431.164 206.761L431.861 206.063Z" fill="#D3DBE0"/>
<path d="M338.365 225.591C338.365 225.591 308.366 163.5 364.876 157.919C421.385 152.338 411.618 192.801 406.735 197.685C401.851 203.266 362.085 233.963 338.365 225.591Z" fill="#F95265"/>
<path d="M341.868 146.77C341.868 146.77 347.449 173.281 341.868 187.931C336.286 201.884 357.216 206.768 367.681 203.279C378.145 199.791 394.191 192.815 392.098 183.745C390.005 174.676 380.936 144.677 386.517 134.212C392.098 123.748 341.868 147.468 341.868 147.468V146.77Z" fill="#F7A280"/>
<path d="M393.482 64.4479C393.482 64.4479 419.295 82.5868 410.923 114.679C406.039 132.12 388.598 154.445 376.738 163.514C364.878 172.584 337.67 195.606 325.81 174.677C313.95 153.747 299.299 92.3539 325.81 65.1456C352.32 37.9372 392.784 65.1456 392.784 65.1456L393.482 64.4479Z" fill="#F9AB88"/>
<path d="M327.895 69.33C327.895 69.33 350.917 96.5384 377.428 97.2361C403.939 97.9337 392.079 107.003 389.288 111.189C387.195 114.677 381.614 135.607 390.683 126.537C394.172 123.049 402.543 115.375 405.334 122.351C408.125 129.328 388.59 147.467 387.893 153.048C387.195 157.234 432.542 118.863 431.147 85.376C429.752 51.1911 405.334 25.3781 358.591 32.3546C320.221 38.6334 314.639 46.3076 314.639 46.3076C314.639 46.3076 316.732 59.5629 327.197 70.0277L327.895 69.33Z" fill="#784B37"/>
<path d="M406.748 197.001L417.213 197.699L407.446 186.536L406.748 197.001Z" fill="#F95265"/>
<path d="M343.951 219.327C343.951 219.327 308.371 215.838 296.511 247.93C296.511 247.93 319.533 254.209 346.044 221.42L343.951 219.327Z" fill="#F95265"/>
<path d="M340.472 220.717C340.472 220.717 323.031 252.112 347.449 275.832C347.449 275.832 362.1 257.693 343.263 219.322L340.472 220.717Z" fill="#F95265"/>
<path d="M369.76 266.753C369.76 270.241 366.97 273.032 363.481 273.032C359.993 273.032 357.202 270.241 357.202 266.753C357.202 263.265 359.993 260.474 363.481 260.474C366.97 260.474 369.76 263.265 369.76 266.753Z" fill="#B5BDC0"/>
<path d="M320.922 254.192C320.922 257.68 318.132 260.471 314.643 260.471C311.155 260.471 308.364 257.68 308.364 254.192C308.364 250.704 311.155 247.913 314.643 247.913C318.132 247.913 320.922 250.704 320.922 254.192Z" fill="#B5BDC0"/>
<path d="M369.76 305.137C369.76 308.626 366.97 311.416 363.481 311.416C359.993 311.416 357.202 308.626 357.202 305.137C357.202 301.649 359.993 298.859 363.481 298.859C366.97 298.859 369.76 301.649 369.76 305.137Z" fill="#B5BDC0"/>
<path d="M320.922 292.577C320.922 296.065 318.132 298.855 314.643 298.855C311.155 298.855 308.364 296.065 308.364 292.577C308.364 289.088 311.155 286.298 314.643 286.298C318.132 286.298 320.922 289.088 320.922 292.577Z" fill="#B5BDC0"/>
<path d="M369.76 353.272C369.76 356.761 366.97 359.551 363.481 359.551C359.993 359.551 357.202 356.761 357.202 353.272C357.202 349.784 359.993 346.993 363.481 346.993C366.97 346.993 369.76 349.784 369.76 353.272Z" fill="#B5BDC0"/>
<path d="M320.922 340.712C320.922 344.2 318.132 346.991 314.643 346.991C311.155 346.991 308.364 344.2 308.364 340.712C308.364 337.223 311.155 334.433 314.643 334.433C318.132 334.433 320.922 337.223 320.922 340.712Z" fill="#B5BDC0"/>
<path d="M369.76 391.636C369.76 395.124 366.97 397.914 363.481 397.914C359.993 397.914 357.202 395.124 357.202 391.636C357.202 388.147 359.993 385.357 363.481 385.357C366.97 385.357 369.76 388.147 369.76 391.636Z" fill="#B5BDC0"/>
<path d="M320.922 379.075C320.922 382.563 318.132 385.354 314.643 385.354C311.155 385.354 308.364 382.563 308.364 379.075C308.364 375.587 311.155 372.796 314.643 372.796C318.132 372.796 320.922 375.587 320.922 379.075Z" fill="#B5BDC0"/>
<path d="M295.11 369.305C295.11 369.305 334.876 397.908 426.268 379.77C426.268 379.77 447.895 448.139 441.616 535.345C438.826 567.437 319.528 584.878 267.902 535.345C267.902 535.345 252.553 482.324 295.11 369.305Z" fill="#F95265"/>
<path d="M296.502 364.429C296.502 364.429 357.197 402.103 429.753 369.313V390.243C429.753 390.243 340.454 413.963 289.525 383.964L295.804 364.429H296.502Z" fill="#E53638"/>
<path d="M327.205 411.164C327.205 411.164 281.16 431.395 265.812 406.28C263.719 403.489 265.812 400.699 278.369 400.001C286.741 399.304 292.322 401.396 295.113 396.513C298.601 390.234 286.043 386.746 288.834 382.56C291.625 378.374 319.531 383.258 319.531 383.258L328.6 383.955L339.763 408.373L327.205 412.559V411.164Z" fill="#F9AB88"/>
<path d="M433.952 208.157C427.673 203.273 409.535 197.692 401.86 222.11C394.186 246.528 403.256 340.71 396.977 350.478C394.186 355.361 320.933 380.477 320.933 380.477C320.933 380.477 335.584 386.755 329.305 413.266C329.305 413.266 434.65 407.685 442.324 382.569C456.277 339.315 463.254 232.575 433.952 208.855V208.157Z" fill="#ECF7FD"/>
<path d="M313.95 83.2776C313.95 83.2776 358.599 127.23 426.969 110.486L436.736 83.9752C436.736 83.9752 370.459 95.1376 323.019 58.1622L313.252 83.2776H313.95Z" fill="#EEEEEF"/>
<path d="M442.314 31.6543C430.453 28.8637 424.175 33.7472 417.896 30.9566C403.943 24.6778 412.315 5.14355 387.897 0.957642C360.688 -3.92591 362.781 11.4224 348.828 12.1201C343.945 12.1201 340.457 6.53885 334.875 5.14355C317.434 0.957642 300.69 12.1201 296.505 28.8637C292.319 46.305 303.481 63.0486 320.225 67.2345C322.318 67.9321 324.411 67.9321 326.504 67.9321C333.48 72.8157 348.131 81.8852 364.874 83.9781C389.292 87.4664 422.779 95.8382 424.175 90.257C441.616 94.4429 458.36 83.2805 462.545 66.5368C466.731 49.0956 461.15 36.5378 442.314 31.6543Z" fill="#F3F4F4"/>
<path d="M320.925 66.5369C323.018 67.2346 325.111 67.2346 327.204 67.2346C334.18 72.1181 348.831 81.1876 365.574 83.2805C389.992 86.7688 423.48 95.1406 424.875 89.5594C442.316 93.7453 459.06 82.5829 463.246 65.8393C463.943 63.7463 463.943 62.351 463.943 60.2581C453.479 70.7228 438.828 71.4205 420.689 65.8393C392.783 58.1651 388.597 51.8862 375.342 40.7238C362.086 30.2591 333.482 38.6309 316.739 31.6544C307.669 27.4685 306.972 17.7014 309.065 10.0272C303.483 14.2131 299.297 20.492 297.205 28.1661C293.019 45.6074 304.181 62.351 320.925 66.5369Z" fill="#E8E9E6"/>
<path d="M348.13 379.779V386.755L211.39 466.288V459.311L348.13 379.779Z" fill="#714930"/>
<path d="M211.388 459.31V466.287L-0.000132263 344.198V337.222L211.388 459.31Z" fill="#6A4331"/>
<path d="M348.13 379.774L211.39 459.306L0.00234669 337.217L136.742 257.685L348.13 379.774Z" fill="#A36940"/>
<path d="M180.008 409.771C202.333 409.771 225.355 404.888 242.797 395.121C276.284 375.587 276.284 344.89 242.797 326.053C226.053 316.984 204.426 312.1 182.799 312.1C160.474 312.1 137.452 316.984 120.01 326.751C85.8255 346.285 86.5232 376.982 120.01 395.818C136.754 404.888 158.381 409.771 180.008 409.771Z" fill="#93603D"/>
<path d="M88.6132 307.222C50.2425 328.85 50.2425 364.43 88.6132 385.359C126.984 406.289 189.075 406.289 227.446 383.964C265.816 362.337 265.816 326.757 227.446 305.827C189.075 284.898 126.984 284.898 88.6132 307.222Z" fill="#D0D2D3"/>
<path d="M88.6132 296.76C50.2425 319.085 50.2425 355.363 88.6132 376.99C126.984 398.617 189.075 397.92 227.446 375.595C265.816 353.27 265.816 316.992 227.446 295.365C189.075 273.738 126.984 273.738 88.6132 296.76Z" fill="#E2E3E4"/>
<path d="M227.449 285.596C244.89 299.549 254.657 317.687 256.053 335.826H60.7106C62.8035 317.687 71.873 300.246 88.6166 286.293C126.987 254.899 189.078 254.201 227.449 284.898V285.596Z" fill="#E2E3E4"/>
<path d="M203.018 271.635C207.204 280.704 203.716 290.471 191.158 298.145C173.019 308.61 143.718 309.308 125.579 298.843C113.021 291.866 108.836 281.402 113.719 272.332C141.625 260.472 175.112 260.472 203.018 271.635Z" fill="#EEEFF0"/>
<path d="M146.521 263.961C146.521 269.542 150.707 273.728 155.59 273.728C160.474 273.728 164.66 269.542 164.66 263.961C164.66 258.38 160.474 254.194 155.59 254.194C150.707 254.194 146.521 258.38 146.521 263.961Z" fill="#D0D2D3"/>
</svg>
